<?xml version="1.0" encoding="UTF-8" standalone="no"?><!-- Generator: Gravit.io --><svg xmlns="http://www.w3.org/2000/svg" xmlns:xlink="http://www.w3.org/1999/xlink" style="isolation:isolate" viewBox="0 0 512 512" width="512pt" height="512pt"><defs><clipPath id="_clipPath_5vQl3jRqsZKE9gqKbJ7m85rUj4NxqUI4"><rect width="512" height="512"/></clipPath></defs><g clip-path="url(#_clipPath_5vQl3jRqsZKE9gqKbJ7m85rUj4NxqUI4)"><rect width="512" height="512" style="fill:rgb(16,30,41)"/><defs><filter id="1pv9jJDldPnTl2ilmqQudTkaCozQS89G" x="-200%" y="-200%" width="400%" height="400%" filterUnits="objectBoundingBox" color-interpolation-filters="sRGB"><feGaussianBlur xmlns="http://www.w3.org/2000/svg" stdDeviation="21.46804531419514"/></filter></defs><g filter="url(#1pv9jJDldPnTl2ilmqQudTkaCozQS89G)"><mask id="_mask_vn9nIvB32ETwGegmZk6J2d2l4Xo1l2am"><path d=" M 352 328 C 352 380.984 308.984 424 256 424 L 256 424 C 203.016 424 160 380.984 160 328 L 160 328 L 160 328 L 160 136 L 160 136 C 160 83.016 203.016 40 256 40 L 256 40 C 308.984 40 352 83.016 352 136 L 352 136 L 352 136 L 352 136 L 352 136 L 352 136 L 352 280 L 352 328 L 352 328 L 352 328 L 352 280 L 352 280 L 400 280 L 400 184 L 400 184 L 400 184 L 448 232 L 448 472 L 400 424 L 400 328 L 352 328 Z  M 112 328 L 112 424 L 64 472 L 64 232 L 112 184 L 112 184 L 112 184 L 112 280 L 160 280 L 160 328 L 160 328 L 112 328 L 112 328 Z  M 294.649 415.891 L 304 472 L 208 472 L 217.351 415.891 C 229.179 421.105 242.254 424 256 424 L 256 424 C 269.746 424 282.821 421.105 294.649 415.891 L 294.649 415.891 L 294.649 415.891 L 294.649 415.891 L 294.649 415.891 Z " fill-rule="evenodd" fill="white" stroke="none"/></mask><path d=" M 352 328 C 352 380.984 308.984 424 256 424 L 256 424 C 203.016 424 160 380.984 160 328 L 160 328 L 160 328 L 160 136 L 160 136 C 160 83.016 203.016 40 256 40 L 256 40 C 308.984 40 352 83.016 352 136 L 352 136 L 352 136 L 352 136 L 352 136 L 352 136 L 352 280 L 352 328 L 352 328 L 352 328 L 352 280 L 352 280 L 400 280 L 400 184 L 400 184 L 400 184 L 448 232 L 448 472 L 400 424 L 400 328 L 352 328 Z  M 112 328 L 112 424 L 64 472 L 64 232 L 112 184 L 112 184 L 112 184 L 112 280 L 160 280 L 160 328 L 160 328 L 112 328 L 112 328 Z  M 294.649 415.891 L 304 472 L 208 472 L 217.351 415.891 C 229.179 421.105 242.254 424 256 424 L 256 424 C 269.746 424 282.821 421.105 294.649 415.891 L 294.649 415.891 L 294.649 415.891 L 294.649 415.891 L 294.649 415.891 Z " fill-rule="evenodd" fill="rgb(63,199,120)"/><path d=" M 352 328 C 352 380.984 308.984 424 256 424 L 256 424 C 203.016 424 160 380.984 160 328 L 160 328 L 160 328 L 160 136 L 160 136 C 160 83.016 203.016 40 256 40 L 256 40 C 308.984 40 352 83.016 352 136 L 352 136 L 352 136 L 352 136 L 352 136 L 352 136 L 352 280 L 352 328 L 352 328 L 352 328 L 352 280 L 352 280 L 400 280 L 400 184 L 400 184 L 400 184 L 448 232 L 448 472 L 400 424 L 400 328 L 352 328 Z  M 112 328 L 112 424 L 64 472 L 64 232 L 112 184 L 112 184 L 112 184 L 112 280 L 160 280 L 160 328 L 160 328 L 112 328 L 112 328 Z  M 294.649 415.891 L 304 472 L 208 472 L 217.351 415.891 C 229.179 421.105 242.254 424 256 424 L 256 424 C 269.746 424 282.821 421.105 294.649 415.891 L 294.649 415.891 L 294.649 415.891 L 294.649 415.891 L 294.649 415.891 Z " fill-rule="evenodd" fill="rgb(63,199,120)" mask="url(#_mask_vn9nIvB32ETwGegmZk6J2d2l4Xo1l2am)" vector-effect="non-scaling-stroke" stroke-width="2" stroke="rgb(63,199,120)" stroke-linejoin="miter" stroke-linecap="square" stroke-miterlimit="3"/></g><mask id="_mask_xupOkHMzW3szNhL23aHwTE6Hn7NNehNb"><path d=" M 352 328 C 352 380.984 308.984 424 256 424 L 256 424 C 203.016 424 160 380.984 160 328 L 160 328 L 160 328 L 160 136 L 160 136 C 160 83.016 203.016 40 256 40 L 256 40 C 308.984 40 352 83.016 352 136 L 352 136 L 352 136 L 352 136 L 352 136 L 352 136 L 352 280 L 352 328 L 352 328 L 352 328 L 352 280 L 352 280 L 400 280 L 400 184 L 400 184 L 400 184 L 448 232 L 448 472 L 400 424 L 400 328 L 352 328 Z  M 112 328 L 112 424 L 64 472 L 64 232 L 112 184 L 112 184 L 112 184 L 112 280 L 160 280 L 160 328 L 160 328 L 112 328 L 112 328 Z  M 294.648 415.891 L 304 472 L 208 472 L 217.352 415.891 C 229.179 421.105 242.254 424 256 424 L 256 424 C 269.746 424 282.821 421.105 294.648 415.891 L 294.648 415.891 L 294.648 415.891 L 294.648 415.891 L 294.648 415.891 Z " fill-rule="evenodd" fill="white" stroke="none"/></mask><path d=" M 352 328 C 352 380.984 308.984 424 256 424 L 256 424 C 203.016 424 160 380.984 160 328 L 160 328 L 160 328 L 160 136 L 160 136 C 160 83.016 203.016 40 256 40 L 256 40 C 308.984 40 352 83.016 352 136 L 352 136 L 352 136 L 352 136 L 352 136 L 352 136 L 352 280 L 352 328 L 352 328 L 352 328 L 352 280 L 352 280 L 400 280 L 400 184 L 400 184 L 400 184 L 448 232 L 448 472 L 400 424 L 400 328 L 352 328 Z  M 112 328 L 112 424 L 64 472 L 64 232 L 112 184 L 112 184 L 112 184 L 112 280 L 160 280 L 160 328 L 160 328 L 112 328 L 112 328 Z  M 294.648 415.891 L 304 472 L 208 472 L 217.352 415.891 C 229.179 421.105 242.254 424 256 424 L 256 424 C 269.746 424 282.821 421.105 294.648 415.891 L 294.648 415.891 L 294.648 415.891 L 294.648 415.891 L 294.648 415.891 Z " fill-rule="evenodd" fill="rgb(63,199,120)"/><path d=" M 352 328 C 352 380.984 308.984 424 256 424 L 256 424 C 203.016 424 160 380.984 160 328 L 160 328 L 160 328 L 160 136 L 160 136 C 160 83.016 203.016 40 256 40 L 256 40 C 308.984 40 352 83.016 352 136 L 352 136 L 352 136 L 352 136 L 352 136 L 352 136 L 352 280 L 352 328 L 352 328 L 352 328 L 352 280 L 352 280 L 400 280 L 400 184 L 400 184 L 400 184 L 448 232 L 448 472 L 400 424 L 400 328 L 352 328 Z  M 112 328 L 112 424 L 64 472 L 64 232 L 112 184 L 112 184 L 112 184 L 112 280 L 160 280 L 160 328 L 160 328 L 112 328 L 112 328 Z  M 294.648 415.891 L 304 472 L 208 472 L 217.352 415.891 C 229.179 421.105 242.254 424 256 424 L 256 424 C 269.746 424 282.821 421.105 294.648 415.891 L 294.648 415.891 L 294.648 415.891 L 294.648 415.891 L 294.648 415.891 Z " fill-rule="evenodd" fill="rgb(63,199,120)" mask="url(#_mask_xupOkHMzW3szNhL23aHwTE6Hn7NNehNb)" vector-effect="non-scaling-stroke" stroke-width="2" stroke="rgb(63,199,120)" stroke-linejoin="miter" stroke-linecap="square" stroke-miterlimit="3"/></g></svg>