<?xml version="1.0" encoding="UTF-8" standalone="no"?><!-- Generator: Gravit.io --><svg xmlns="http://www.w3.org/2000/svg" xmlns:xlink="http://www.w3.org/1999/xlink" style="isolation:isolate" viewBox="0 0 90 90" width="90pt" height="90pt"><defs><clipPath id="_clipPath_diuIBwO4H4sXx3p5J5y0ecwd47MDyX6F"><rect width="90" height="90"/></clipPath></defs><g clip-path="url(#_clipPath_diuIBwO4H4sXx3p5J5y0ecwd47MDyX6F)"><clipPath id="_clipPath_DHAd8lKl0mVz2WiJ7siu5xTY5TlT2nfg"><rect x="9" y="0" width="72" height="90" transform="matrix(1,0,0,1,0,0)" fill="rgb(255,255,255)"/></clipPath><g clip-path="url(#_clipPath_DHAd8lKl0mVz2WiJ7siu5xTY5TlT2nfg)"><g><g><rect x="0" y="9" width="90" height="72" transform="matrix(0,-1,1,0,0,90)" fill="none"/><g><path d=" M 57 42 L 57 18 L 33 18 L 33 42 L 45 30 L 57 42 Z " fill-rule="evenodd" fill="rgb(255,255,255)"/><rect x="42" y="-3" width="6" height="12" transform="matrix(0,1,-1,0,48,-42)" fill="rgb(255,255,255)"/><rect x="62.344" y="38.638" width="5.998" height="11.996" transform="matrix(0.707,-0.707,0.707,0.707,-12.424,59.278)" fill="rgb(255,255,255)"/><rect x="66" y="75" width="6" height="12" transform="matrix(0,1,-1,0,150,12)" fill="none"/><clipPath id="_clipPath_Oz0zzQxGn4mNRn2J69HV5I5R9KGy9OGR"><rect x="66" y="75" width="6" height="12" transform="matrix(0,-1,1,0,-12,150)" fill="rgb(255,255,255)"/></clipPath><g clip-path="url(#_clipPath_Oz0zzQxGn4mNRn2J69HV5I5R9KGy9OGR)"><g><rect x="66" y="75" width="6" height="12" transform="matrix(0,1,-1,0,150,12)" fill="none"/><clipPath id="_clipPath_FIjoJiznTecaJFKd3Ojxvvzd32ZbvjTb"><rect x="66" y="75" width="6" height="12" transform="matrix(1,0,0,1,0,0)" fill="rgb(255,255,255)"/></clipPath><g clip-path="url(#_clipPath_FIjoJiznTecaJFKd3Ojxvvzd32ZbvjTb)"><mask id="_mask_V8j0AlHU61aJCusLCA9SU77iphPTkbTl"><rect x="66" y="75" width="6" height="12" fill="white" stroke="none"/></mask><rect x="66" y="75" width="6" height="12" transform="matrix(0,1,-1,0,150,12)" fill="none"/><rect x="66" y="75" width="6" height="12" transform="matrix(0,1,-1,0,150,12)" fill="none" mask="url(#_mask_V8j0AlHU61aJCusLCA9SU77iphPTkbTl)" vector-effect="non-scaling-stroke" stroke-width="4" stroke="rgb(255,255,255)" stroke-opacity="10000" stroke-linejoin="miter" stroke-linecap="square" stroke-miterlimit="2"/></g></g></g><rect x="42" y="81" width="6" height="12" transform="matrix(0,1,-1,0,132,42)" fill="none"/><clipPath id="_clipPath_7bnUIpwEK6NOe683OZyeE4RziFLPCSJJ"><rect x="42" y="81" width="6" height="12" transform="matrix(0,-1,1,0,-42,132)" fill="rgb(255,255,255)"/></clipPath><g clip-path="url(#_clipPath_7bnUIpwEK6NOe683OZyeE4RziFLPCSJJ)"><g><rect x="42" y="81" width="6" height="12" transform="matrix(0,1,-1,0,132,42)" fill="none"/><clipPath id="_clipPath_203FOprcLAMVJgsZU5j9lRab5ppmBwom"><rect x="42" y="81" width="6" height="12" transform="matrix(1,0,0,1,0,0)" fill="rgb(255,255,255)"/></clipPath><g clip-path="url(#_clipPath_203FOprcLAMVJgsZU5j9lRab5ppmBwom)"><mask id="_mask_ZmPq5RlEjYznnUfU5FGr2Z4oGTUCRj5D"><rect x="42" y="81" width="6" height="12" fill="white" stroke="none"/></mask><rect x="42" y="81" width="6" height="12" transform="matrix(0,1,-1,0,132,42)" fill="none"/><rect x="42" y="81" width="6" height="12" transform="matrix(0,1,-1,0,132,42)" fill="none" mask="url(#_mask_ZmPq5RlEjYznnUfU5FGr2Z4oGTUCRj5D)" vector-effect="non-scaling-stroke" stroke-width="4" stroke="rgb(255,255,255)" stroke-opacity="10000" stroke-linejoin="miter" stroke-linecap="square" stroke-miterlimit="2"/></g></g></g><rect x="18" y="75" width="6" height="12" transform="matrix(0,1,-1,0,102,60)" fill="none"/><clipPath id="_clipPath_bQQMfKc4yl2ujkGJjWkNf94NZG5ITwE7"><rect x="18" y="75" width="6" height="12" transform="matrix(0,-1,1,0,-60,102)" fill="rgb(255,255,255)"/></clipPath><g clip-path="url(#_clipPath_bQQMfKc4yl2ujkGJjWkNf94NZG5ITwE7)"><g><rect x="18" y="75" width="6" height="12" transform="matrix(0,1,-1,0,102,60)" fill="none"/><clipPath id="_clipPath_Hfd0Tfd9f4NXfZ6tYg724vdERZxUBHZE"><rect x="18" y="75" width="6" height="12" transform="matrix(1,0,0,1,0,0)" fill="rgb(255,255,255)"/></clipPath><g clip-path="url(#_clipPath_Hfd0Tfd9f4NXfZ6tYg724vdERZxUBHZE)"><mask id="_mask_OrMtPWcZFzKpDmXTfS8AWZgnPvER0XWf"><rect x="18" y="75" width="6" height="12" fill="white" stroke="none"/></mask><rect x="18" y="75" width="6" height="12" transform="matrix(0,1,-1,0,102,60)" fill="none"/><rect x="18" y="75" width="6" height="12" transform="matrix(0,1,-1,0,102,60)" fill="none" mask="url(#_mask_OrMtPWcZFzKpDmXTfS8AWZgnPvER0XWf)" vector-effect="non-scaling-stroke" stroke-width="4" stroke="rgb(255,255,255)" stroke-opacity="10000" stroke-linejoin="miter" stroke-linecap="square" stroke-miterlimit="2"/></g></g></g><rect x="21.637" y="38.624" width="5.998" height="11.996" transform="matrix(0.707,0.707,-0.707,0.707,38.769,-4.351)" fill="rgb(255,255,255)"/><path d=" M 57 60 L 57 84 L 33 84 L 33 60 C 33 56.688 35.688 54 39 54 L 51 54 C 54.312 54 57 56.688 57 60 Z " fill="rgb(255,255,255)"/><path d=" M 57 66 L 69 54 L 45 30 L 21 54 L 33 66 L 33 60 C 33 56.688 35.688 54 39 54 L 51 54 C 54.312 54 57 56.688 57 60 L 57 66 Z " fill-rule="evenodd" fill="none"/><clipPath id="_clipPath_7doaDk1sGclXBFyEaStiTzHep2VnzM0T"><path d=" M -135 -180 L 153 -180 L 153 180 L -135 180 L -135 -180 Z  M 57 66 L 69 54 L 45 30 L 21 54 L 33 66 L 33 60 C 33 56.688 35.688 54 39 54 L 51 54 C 54.312 54 57 56.688 57 60 L 57 66 L 57 66 Z " fill-rule="evenodd" fill="rgb(255,255,255)"/></clipPath><g clip-path="url(#_clipPath_7doaDk1sGclXBFyEaStiTzHep2VnzM0T)"><mask id="_mask_YfGRmzk9Ts9xXWzp2q120ib7HFzOqPUy" x="-200%" y="-200%" width="400%" height="400%"><rect x="-200%" y="-200%" width="400%" height="400%" style="fill:white;"/><path d=" M 57 66 L 69 54 L 45 30 L 21 54 L 33 66 L 33 60 C 33 56.688 35.688 54 39 54 L 51 54 C 54.312 54 57 56.688 57 60 L 57 66 Z " fill-rule="evenodd" fill="black" stroke="none"/></mask><path d=" M 57 66 L 69 54 L 45 30 L 21 54 L 33 66 L 33 60 C 33 56.688 35.688 54 39 54 L 51 54 C 54.312 54 57 56.688 57 60 L 57 66 Z " fill-rule="evenodd" fill="none"/><path d=" M 57 66 L 69 54 L 45 30 L 21 54 L 33 66 L 33 60 C 33 56.688 35.688 54 39 54 L 51 54 C 54.312 54 57 56.688 57 60 L 57 66 Z " fill-rule="evenodd" fill="none" mask="url(#_mask_YfGRmzk9Ts9xXWzp2q120ib7HFzOqPUy)" vector-effect="non-scaling-stroke" stroke-width="4" stroke="rgb(255,255,255)" stroke-opacity="10000" stroke-linejoin="miter" stroke-linecap="square" stroke-miterlimit="3"/></g><path d=" M 27 60 L 15 60 C 11.688 60 9 62.688 9 66 L 9 78 L 33 78 L 33 66 L 27 60 Z  M 63 60 L 75 60 C 78.312 60 81 62.688 81 66 L 81 78 L 57 78 L 57 66 L 63 60 Z " fill-rule="evenodd" fill="none"/><clipPath id="_clipPath_zfWjzOMfeS63X8VkpEasLHZTDXlZyO1z"><path d=" M 27 60 L 15 60 C 11.688 60 9 62.688 9 66 L 9 78 L 33 78 L 33 66 L 27 60 Z  M 63 60 L 75 60 C 78.312 60 81 62.688 81 66 L 81 78 L 57 78 L 57 66 L 63 60 Z " fill-rule="evenodd" fill="rgb(255,255,255)"/></clipPath><g clip-path="url(#_clipPath_zfWjzOMfeS63X8VkpEasLHZTDXlZyO1z)"><g><path d=" M 27 60 L 15 60 C 11.688 60 9 62.688 9 66 L 9 78 L 33 78 L 33 66 L 27 60 Z  M 63 60 L 75 60 C 78.312 60 81 62.688 81 66 L 81 78 L 57 78 L 57 66 L 63 60 Z " fill-rule="evenodd" fill="none"/><clipPath id="_clipPath_MOii54eNkJd4PIgT7cMZAKDkShtSqgql"><path d=" M 27 60 L 15 60 C 11.688 60 9 62.688 9 66 L 9 78 L 33 78 L 33 66 L 27 60 Z  M 63 60 L 75 60 C 78.312 60 81 62.688 81 66 L 81 78 L 57 78 L 57 66 L 63 60 Z " fill-rule="evenodd" fill="rgb(255,255,255)"/></clipPath><g clip-path="url(#_clipPath_MOii54eNkJd4PIgT7cMZAKDkShtSqgql)"><mask id="_mask_AkTpzfq1kENbERNdHjQXbIv0J6Q8EdvU"><path d=" M 27 60 L 15 60 C 11.688 60 9 62.688 9 66 L 9 78 L 33 78 L 33 66 L 27 60 Z  M 63 60 L 75 60 C 78.312 60 81 62.688 81 66 L 81 78 L 57 78 L 57 66 L 63 60 Z " fill-rule="evenodd" fill="white" stroke="none"/></mask><path d=" M 27 60 L 15 60 C 11.688 60 9 62.688 9 66 L 9 78 L 33 78 L 33 66 L 27 60 Z  M 63 60 L 75 60 C 78.312 60 81 62.688 81 66 L 81 78 L 57 78 L 57 66 L 63 60 Z " fill-rule="evenodd" fill="none"/><path d=" M 27 60 L 15 60 C 11.688 60 9 62.688 9 66 L 9 78 L 33 78 L 33 66 L 27 60 Z  M 63 60 L 75 60 C 78.312 60 81 62.688 81 66 L 81 78 L 57 78 L 57 66 L 63 60 Z " fill-rule="evenodd" fill="none" mask="url(#_mask_AkTpzfq1kENbERNdHjQXbIv0J6Q8EdvU)" vector-effect="non-scaling-stroke" stroke-width="4" stroke="rgb(255,255,255)" stroke-opacity="10000" stroke-linejoin="miter" stroke-linecap="square" stroke-miterlimit="3"/></g></g></g></g><path d=" M 21 18 L 21 12 C 21 8.688 23.688 6 27 6 L 63 6 C 66.312 6 69 8.688 69 12 L 69 18 L 21 18 Z " fill="none"/><clipPath id="_clipPath_B8idfg4cRjq1ncPLYNoRCc8zZvElNkre"><path d=" M -135 -180 L 153 -180 L 153 180 L -135 180 L -135 -180 Z  M 21 18 L 21 12 C 21 8.688 23.688 6 27 6 L 63 6 C 66.312 6 69 8.688 69 12 L 69 18 L 21 18 L 21 18 Z " fill-rule="evenodd" fill="rgb(255,255,255)"/></clipPath><g clip-path="url(#_clipPath_B8idfg4cRjq1ncPLYNoRCc8zZvElNkre)"><mask id="_mask_WF4tTUlxtQ4PU8XTSHkffBLfVKSP8E3g" x="-200%" y="-200%" width="400%" height="400%"><rect x="-200%" y="-200%" width="400%" height="400%" style="fill:white;"/><path d=" M 21 18 L 21 12 C 21 8.688 23.688 6 27 6 L 63 6 C 66.312 6 69 8.688 69 12 L 69 18 L 21 18 Z " fill="black" stroke="none"/></mask><path d=" M 21 18 L 21 12 C 21 8.688 23.688 6 27 6 L 63 6 C 66.312 6 69 8.688 69 12 L 69 18 L 21 18 Z " fill="none"/><path d=" M 21 18 L 21 12 C 21 8.688 23.688 6 27 6 L 63 6 C 66.312 6 69 8.688 69 12 L 69 18 L 21 18 Z " fill="none" mask="url(#_mask_WF4tTUlxtQ4PU8XTSHkffBLfVKSP8E3g)" vector-effect="non-scaling-stroke" stroke-width="4" stroke="rgb(255,255,255)" stroke-opacity="100" stroke-linejoin="miter" stroke-linecap="square" stroke-miterlimit="2"/></g></g></g></g></g></svg>