<?xml version="1.0" encoding="UTF-8" standalone="no"?><!-- Generator: Gravit.io --><svg xmlns="http://www.w3.org/2000/svg" xmlns:xlink="http://www.w3.org/1999/xlink" style="isolation:isolate" viewBox="0 0 45 36" width="45pt" height="36pt"><defs><clipPath id="_clipPath_uL9BSOmVIvbQO9aMHV5lEvE1cAs0PuOf"><rect width="45" height="36"/></clipPath></defs><g clip-path="url(#_clipPath_uL9BSOmVIvbQO9aMHV5lEvE1cAs0PuOf)"><clipPath id="_clipPath_nwqje13mgqkpCPKNISk1aJeK4YsQo96N"><rect x="0" y="0" width="45" height="36" transform="matrix(1,0,0,1,0,0)" fill="rgb(255,255,255)"/></clipPath><g clip-path="url(#_clipPath_nwqje13mgqkpCPKNISk1aJeK4YsQo96N)"><g><rect x="0" y="0" width="45" height="36" transform="matrix(1,0,0,1,0,0)" fill="none"/><g><path d=" M 24 24 L 36 24 L 36 12 L 24 12 L 30 18 L 24 24 L 24 24 Z " fill-rule="evenodd" fill="rgb(255,255,255)"/><rect x="42" y="15" width="3" height="6" transform="matrix(-1,0,0,-1,87,36)" fill="rgb(255,255,255)"/><rect x="21.183" y="25.177" width="3" height="5.999" transform="matrix(0.707,0.707,-0.707,0.707,26.568,-7.786)" fill="rgb(255,255,255)"/><rect x="3" y="27" width="3" height="6" transform="matrix(-1,0,0,-1,9,60)" fill="none"/><clipPath id="_clipPath_83z0rwAA64aVxXpUx9Zcpc7WuZH2LyoL"><rect x="3" y="27" width="3" height="6" transform="matrix(1,0,0,1,0,0)" fill="rgb(255,255,255)"/></clipPath><g clip-path="url(#_clipPath_83z0rwAA64aVxXpUx9Zcpc7WuZH2LyoL)"><mask id="_mask_on8iX0a1dJpCixX85zt9gDEJurcfcjxj"><rect x="3" y="27" width="3" height="6" fill="white" stroke="none"/></mask><rect x="3" y="27" width="3" height="6" transform="matrix(-1,0,0,-1,9,60)" fill="none"/><rect x="3" y="27" width="3" height="6" transform="matrix(-1,0,0,-1,9,60)" fill="none" mask="url(#_mask_on8iX0a1dJpCixX85zt9gDEJurcfcjxj)" vector-effect="non-scaling-stroke" stroke-width="2" stroke="rgb(255,255,255)" stroke-opacity="100" stroke-linejoin="miter" stroke-linecap="square" stroke-miterlimit="2"/></g><rect x="0" y="15" width="3" height="6" transform="matrix(-1,0,0,-1,3,36)" fill="none"/><clipPath id="_clipPath_NxOtuNgVRev3GHA5sdqiMShPP6Rh9eiH"><rect x="0" y="15" width="3" height="6" transform="matrix(1,0,0,1,0,0)" fill="rgb(255,255,255)"/></clipPath><g clip-path="url(#_clipPath_NxOtuNgVRev3GHA5sdqiMShPP6Rh9eiH)"><mask id="_mask_qJgrjglLMO2fT0Rp66ZpndolJPG85VXp"><rect x="0" y="15" width="3" height="6" fill="white" stroke="none"/></mask><rect x="0" y="15" width="3" height="6" transform="matrix(-1,0,0,-1,3,36)" fill="none"/><rect x="0" y="15" width="3" height="6" transform="matrix(-1,0,0,-1,3,36)" fill="none" mask="url(#_mask_qJgrjglLMO2fT0Rp66ZpndolJPG85VXp)" vector-effect="non-scaling-stroke" stroke-width="2" stroke="rgb(255,255,255)" stroke-opacity="100" stroke-linejoin="miter" stroke-linecap="square" stroke-miterlimit="2"/></g><rect x="3" y="3" width="3" height="6" transform="matrix(-1,0,0,-1,9,12)" fill="none"/><clipPath id="_clipPath_x7E8KELR0K9k0gPfnLDufqf0XR7tsmb9"><rect x="3" y="3" width="3" height="6" transform="matrix(1,0,0,1,0,0)" fill="rgb(255,255,255)"/></clipPath><g clip-path="url(#_clipPath_x7E8KELR0K9k0gPfnLDufqf0XR7tsmb9)"><mask id="_mask_YNvak87tnGgylePvPJtgDDnKjdMhFrin"><rect x="3" y="3" width="3" height="6" fill="white" stroke="none"/></mask><rect x="3" y="3" width="3" height="6" transform="matrix(-1,0,0,-1,9,12)" fill="none"/><rect x="3" y="3" width="3" height="6" transform="matrix(-1,0,0,-1,9,12)" fill="none" mask="url(#_mask_YNvak87tnGgylePvPJtgDDnKjdMhFrin)" vector-effect="non-scaling-stroke" stroke-width="2" stroke="rgb(255,255,255)" stroke-opacity="100" stroke-linejoin="miter" stroke-linecap="square" stroke-miterlimit="2"/></g><rect x="21.186" y="4.817" width="3" height="5.999" transform="matrix(-0.707,0.707,-0.707,-0.707,44.254,-2.697)" fill="rgb(255,255,255)"/><path d=" M 15 24 L 3 24 L 3 12 L 15 12 C 16.656 12 18 13.344 18 15 L 18 21 C 18 22.656 16.656 24 15 24 Z " fill="rgb(255,255,255)"/><mask id="_mask_8VQ5pGnsbVth1FIOHFMV8acuLNUAGK0K" x="-200%" y="-200%" width="400%" height="400%"><rect x="-200%" y="-200%" width="400%" height="400%" style="fill:white;"/><path d=" M 12 24 L 18 30 L 30 18 L 18 6 L 12 12 L 15 12 C 16.656 12 18 13.344 18 15 L 18 21 C 18 22.656 16.656 24 15 24 L 12 24 L 12 24 Z " fill-rule="evenodd" fill="black" stroke="none"/></mask><path d=" M 12 24 L 18 30 L 30 18 L 18 6 L 12 12 L 15 12 C 16.656 12 18 13.344 18 15 L 18 21 C 18 22.656 16.656 24 15 24 L 12 24 L 12 24 Z " fill-rule="evenodd" fill="none"/><path d=" M 12 24 L 18 30 L 30 18 L 18 6 L 12 12 L 15 12 C 16.656 12 18 13.344 18 15 L 18 21 C 18 22.656 16.656 24 15 24 L 12 24 L 12 24 Z " fill-rule="evenodd" fill="none" mask="url(#_mask_8VQ5pGnsbVth1FIOHFMV8acuLNUAGK0K)" vector-effect="non-scaling-stroke" stroke-width="2" stroke="rgb(255,255,255)" stroke-opacity="100" stroke-linejoin="miter" stroke-linecap="square" stroke-miterlimit="3"/><path d=" M 15 9 L 15 3 C 15 1.344 13.656 0 12 0 L 6 0 L 6 12 L 12 12 L 15 9 L 15 9 Z  M 15 27 L 15 33 C 15 34.656 13.656 36 12 36 L 6 36 L 6 24 L 12 24 L 15 27 L 15 27 Z " fill-rule="evenodd" fill="none"/><clipPath id="_clipPath_5j7jXgy7t4prljOXQXBujs5MX5to6brF"><path d=" M 15 9 L 15 3 C 15 1.344 13.656 0 12 0 L 6 0 L 6 12 L 12 12 L 15 9 L 15 9 Z  M 15 27 L 15 33 C 15 34.656 13.656 36 12 36 L 6 36 L 6 24 L 12 24 L 15 27 L 15 27 Z " fill-rule="evenodd" fill="rgb(255,255,255)"/></clipPath><g clip-path="url(#_clipPath_5j7jXgy7t4prljOXQXBujs5MX5to6brF)"><mask id="_mask_m55AeNywl4hEHR1QdbmKb5jTNwd9Elqb"><path d=" M 15 9 L 15 3 C 15 1.344 13.656 0 12 0 L 6 0 L 6 12 L 12 12 L 15 9 L 15 9 Z  M 15 27 L 15 33 C 15 34.656 13.656 36 12 36 L 6 36 L 6 24 L 12 24 L 15 27 L 15 27 Z " fill-rule="evenodd" fill="white" stroke="none"/></mask><path d=" M 15 9 L 15 3 C 15 1.344 13.656 0 12 0 L 6 0 L 6 12 L 12 12 L 15 9 L 15 9 Z  M 15 27 L 15 33 C 15 34.656 13.656 36 12 36 L 6 36 L 6 24 L 12 24 L 15 27 L 15 27 Z " fill-rule="evenodd" fill="none"/><path d=" M 15 9 L 15 3 C 15 1.344 13.656 0 12 0 L 6 0 L 6 12 L 12 12 L 15 9 L 15 9 Z  M 15 27 L 15 33 C 15 34.656 13.656 36 12 36 L 6 36 L 6 24 L 12 24 L 15 27 L 15 27 Z " fill-rule="evenodd" fill="none" mask="url(#_mask_m55AeNywl4hEHR1QdbmKb5jTNwd9Elqb)" vector-effect="non-scaling-stroke" stroke-width="2" stroke="rgb(255,255,255)" stroke-opacity="100" stroke-linejoin="miter" stroke-linecap="square" stroke-miterlimit="3"/></g></g><mask id="_mask_kZDjvBquhjfIwRkxgW4IP9xFD9R4kkC5" x="-200%" y="-200%" width="400%" height="400%"><rect x="-200%" y="-200%" width="400%" height="400%" style="fill:white;"/><path d=" M 36 6 L 39 6 C 40.656 6 42 7.344 42 9 L 42 27 C 42 28.656 40.656 30 39 30 L 36 30 L 36 6 L 36 6 Z " fill="black" stroke="none"/></mask><path d=" M 36 6 L 39 6 C 40.656 6 42 7.344 42 9 L 42 27 C 42 28.656 40.656 30 39 30 L 36 30 L 36 6 L 36 6 Z " fill="none"/><path d=" M 36 6 L 39 6 C 40.656 6 42 7.344 42 9 L 42 27 C 42 28.656 40.656 30 39 30 L 36 30 L 36 6 L 36 6 Z " fill="none" mask="url(#_mask_kZDjvBquhjfIwRkxgW4IP9xFD9R4kkC5)" vector-effect="non-scaling-stroke" stroke-width="2" stroke="rgb(255,255,255)" stroke-linejoin="miter" stroke-linecap="square" stroke-miterlimit="2"/></g></g></g></svg>