<?xml version="1.0" encoding="UTF-8" standalone="no"?><!-- Generator: Gravit.io --><svg xmlns="http://www.w3.org/2000/svg" xmlns:xlink="http://www.w3.org/1999/xlink" style="isolation:isolate" viewBox="0 0 12 20" width="12pt" height="20pt"><defs><clipPath id="_clipPath_E7Y5BNnei7onLtLgfMJgUwwVbEgzCqWD"><rect width="12" height="20"/></clipPath></defs><g clip-path="url(#_clipPath_E7Y5BNnei7onLtLgfMJgUwwVbEgzCqWD)"><g><path d="M 2 16 L 10 16 C 11.104 16 12 16.896 12 18 L 12 18 C 12 19.104 11.104 20 10 20 L 2 20 C 0.896 20 0 19.104 0 18 L 0 18 C 0 16.896 0.896 16 2 16 Z" style="stroke:none;fill:#FFFFFF;stroke-miterlimit:10;"/><path d="M 10 7 L 2 7 C 0.896 7 0 6.104 0 5 L 0 5 C 0 3.896 0.896 3 2 3 L 10 3 C 11.104 3 12 3.896 12 5 L 12 5 C 12 6.104 11.104 7 10 7 Z" style="stroke:none;fill:#FFFFFF;stroke-miterlimit:10;"/><rect x="0" y="16" width="12" height="2" transform="matrix(1,0,0,1,0,0)" fill="rgb(255,255,255)"/><rect x="0" y="5" width="12" height="2" transform="matrix(-1,0,0,-1,12,12)" fill="rgb(255,255,255)"/><path d="M 4.5 0 L 7.5 0 C 8.328 0 9 0.672 9 1.5 L 9 4.5 C 9 5.328 8.328 6 7.5 6 L 4.5 6 C 3.672 6 3 5.328 3 4.5 L 3 1.5 C 3 0.672 3.672 0 4.5 0 Z" style="stroke:none;fill:#FFFFFF;stroke-miterlimit:10;"/><path d=" M 4 7 L 1.5 7 L 1.5 16 L 4 16 L 4 7 Z  M 8 7 L 10.5 7 L 10.5 16 L 8 16 L 8 7 Z " fill-rule="evenodd" fill="rgb(255,255,255)"/></g></g></svg>