<?xml version="1.0" encoding="UTF-8" standalone="no"?><!-- Generator: Gravit.io --><svg xmlns="http://www.w3.org/2000/svg" xmlns:xlink="http://www.w3.org/1999/xlink" style="isolation:isolate" viewBox="0 0 120 120" width="120pt" height="120pt"><defs><clipPath id="_clipPath_8N6qtAFqvIud2FkAdpCpCtkXxgnrLksG"><rect width="120" height="120"/></clipPath></defs><g clip-path="url(#_clipPath_8N6qtAFqvIud2FkAdpCpCtkXxgnrLksG)"><g><g><path d=" M 41.152 51.077 L 9 54 L 9 54 L 9 66 L 41.152 68.923 L 36 60 L 41.152 51.077 Z  M 78.848 68.923 L 111 66 L 111 66 L 111 54 L 78.848 51.077 L 84 60 L 78.848 68.923 Z " fill-rule="evenodd" fill="rgb(255,255,255)"/><mask id="_mask_J9pXrUwuyg4ixx5LSNnhaeAsx1csoJAa"><polygon points="84,60,72,80.785,48,80.785,36,60,48,39.215,72,39.215" fill="white" stroke="none"/></mask><polygon points="84,60,72,80.785,48,80.785,36,60,48,39.215,72,39.215" fill="none"/><polygon points="84,60,72,80.785,48,80.785,36,60,48,39.215,72,39.215" fill="none" mask="url(#_mask_J9pXrUwuyg4ixx5LSNnhaeAsx1csoJAa)" vector-effect="non-scaling-stroke" stroke-width="2" stroke="rgb(255,255,255)" stroke-linejoin="miter" stroke-linecap="square" stroke-miterlimit="3"/><path d=" M 71.746 51.536 L 66 8.44 L 66 8.44 L 54 8.44 L 48.238 51.659 C 50.86 47.969 55.169 45.56 60.036 45.56 C 64.849 45.56 69.116 47.916 71.746 51.536 Z  M 63.145 15.07 L 66.29 38.656 L 53.71 38.656 L 56.855 15.07 L 63.145 15.07 L 63.145 15.07 Z " fill-rule="evenodd" fill="rgb(255,255,255)"/><path d=" M 48.253 68.458 L 54 111.56 L 54 111.56 L 66 111.56 L 71.715 68.699 C 69.071 72.254 64.838 74.56 60.071 74.56 C 55.198 74.56 50.883 72.15 48.253 68.458 Z  M 56.855 104.93 L 53.71 81.344 L 66.29 81.344 L 63.145 104.93 L 56.855 104.93 L 56.855 104.93 Z " fill-rule="evenodd" fill="rgb(255,255,255)"/><mask id="_mask_lsiM9pmFnG4CKVgdKvvCvXmmlKTJfjcw"><circle vector-effect="non-scaling-stroke" cx="59.999999999999645" cy="59.99999999999987" r="15.000000000000039" fill="white" stroke="none"/></mask><circle vector-effect="non-scaling-stroke" cx="59.999999999999645" cy="59.99999999999987" r="15.000000000000039" fill="none"/><circle vector-effect="non-scaling-stroke" cx="59.999999999999645" cy="59.99999999999987" r="15.000000000000039" fill="none" mask="url(#_mask_lsiM9pmFnG4CKVgdKvvCvXmmlKTJfjcw)" stroke-width="2" stroke="rgb(255,255,255)" stroke-linejoin="miter" stroke-linecap="square" stroke-miterlimit="3"/><circle vector-effect="non-scaling-stroke" cx="60" cy="59.99999999999986" r="7.5" fill="rgb(255,255,255)"/></g><g><mask id="_mask_899tGNBVOnHkYKeZdcYNEIwH8BbSKXHS"><path d=" M 90 60 C 90 76.557 76.557 90 60 90 C 43.443 90 30 76.557 30 60 C 30 43.443 43.443 30 60 30 C 76.557 30 90 43.443 90 60 Z " fill="white" stroke="none"/></mask><path d=" M 90 60 C 90 76.557 76.557 90 60 90 C 43.443 90 30 76.557 30 60 C 30 43.443 43.443 30 60 30 C 76.557 30 90 43.443 90 60 Z " fill="none"/><path d=" M 90 60 C 90 76.557 76.557 90 60 90 C 43.443 90 30 76.557 30 60 C 30 43.443 43.443 30 60 30 C 76.557 30 90 43.443 90 60 Z " fill="none" mask="url(#_mask_899tGNBVOnHkYKeZdcYNEIwH8BbSKXHS)" vector-effect="non-scaling-stroke" stroke-width="2" stroke="rgb(255,255,255)" stroke-linejoin="miter" stroke-linecap="square" stroke-miterlimit="3"/><path d=" M 22.795 40.505 L 33.2 46.512 L 33.2 46.512 C 33.718 45.485 34.294 44.492 34.923 43.536 L 24.518 37.529 C 23.905 38.495 23.33 39.488 22.795 40.505 Z  M 29.116 31.548 L 37.61 40.041 L 37.61 40.041 C 38.373 39.185 39.185 38.373 40.041 37.61 L 31.548 29.116 C 30.705 29.893 29.893 30.705 29.116 31.548 Z  M 37.529 24.518 L 43.536 34.923 L 43.536 34.923 C 44.492 34.294 45.485 33.718 46.512 33.2 L 40.505 22.795 C 39.488 23.33 38.495 23.905 37.529 24.518 Z  M 79.495 22.795 L 73.488 33.2 L 73.488 33.2 C 74.515 33.718 75.508 34.294 76.464 34.923 L 82.471 24.518 C 81.505 23.905 80.512 23.33 79.495 22.795 Z  M 88.452 29.116 L 79.959 37.61 L 79.959 37.61 C 80.815 38.373 81.627 39.185 82.39 40.041 L 90.884 31.548 C 90.107 30.705 89.295 29.893 88.452 29.116 Z  M 95.482 37.529 L 85.077 43.536 L 85.077 43.536 C 85.706 44.492 86.282 45.485 86.8 46.512 L 97.205 40.505 C 96.67 39.488 96.095 38.495 95.482 37.529 Z  M 97.205 79.495 L 86.8 73.488 L 86.8 73.488 C 86.282 74.515 85.706 75.508 85.077 76.464 L 95.482 82.471 C 96.095 81.505 96.67 80.512 97.205 79.495 Z  M 90.884 88.452 L 82.39 79.959 L 82.39 79.959 C 81.627 80.815 80.815 81.627 79.959 82.39 L 88.452 90.884 C 89.295 90.107 90.107 89.295 90.884 88.452 Z  M 82.471 95.482 L 76.464 85.077 L 76.464 85.077 C 75.508 85.706 74.515 86.282 73.488 86.8 L 79.495 97.205 C 80.512 96.67 81.505 96.095 82.471 95.482 Z  M 40.505 97.205 L 46.512 86.8 L 46.512 86.8 C 45.485 86.282 44.492 85.706 43.536 85.077 L 37.529 95.482 C 38.495 96.095 39.488 96.67 40.505 97.205 Z  M 31.548 90.884 L 40.041 82.39 L 40.041 82.39 C 39.185 81.627 38.373 80.815 37.61 79.959 L 29.116 88.452 C 29.893 89.295 30.705 90.107 31.548 90.884 Z  M 24.518 82.471 L 34.923 76.464 L 34.923 76.464 C 34.294 75.508 33.718 74.515 33.2 73.488 L 22.795 79.495 C 23.33 80.512 23.905 81.505 24.518 82.471 Z " fill-rule="evenodd" fill="rgb(255,255,255)"/><mask id="_mask_Mk7pYH3vWsaHxrdaux2tIghFKhPdnFeZ"><path d=" M 78.183 117.148 C 98.486 110.589 114.059 93.346 118.367 72 L 118.367 72 L 118.367 72 L 100.258 72 C 96.296 85.292 85.925 95.833 72.737 100.031 L 78.183 117.148 Z  M 41.817 117.148 C 21.514 110.589 5.941 93.346 1.633 72 L 19.742 72 C 23.704 85.292 34.075 95.833 47.263 100.031 L 41.817 117.148 Z  M 41.817 2.852 C 21.514 9.411 5.941 26.654 1.633 48 L 1.633 48 L 19.742 48 C 23.704 34.708 34.075 24.167 47.263 19.969 L 41.817 2.852 L 41.817 2.852 Z  M 78.183 2.852 C 98.486 9.411 114.059 26.654 118.367 48 L 100.258 48 C 96.296 34.708 85.925 24.167 72.737 19.969 L 78.183 2.852 L 78.183 2.852 Z " fill-rule="evenodd" fill="white" stroke="none"/></mask><path d=" M 78.183 117.148 C 98.486 110.589 114.059 93.346 118.367 72 L 118.367 72 L 118.367 72 L 100.258 72 C 96.296 85.292 85.925 95.833 72.737 100.031 L 78.183 117.148 Z  M 41.817 117.148 C 21.514 110.589 5.941 93.346 1.633 72 L 19.742 72 C 23.704 85.292 34.075 95.833 47.263 100.031 L 41.817 117.148 Z  M 41.817 2.852 C 21.514 9.411 5.941 26.654 1.633 48 L 1.633 48 L 19.742 48 C 23.704 34.708 34.075 24.167 47.263 19.969 L 41.817 2.852 L 41.817 2.852 Z  M 78.183 2.852 C 98.486 9.411 114.059 26.654 118.367 48 L 100.258 48 C 96.296 34.708 85.925 24.167 72.737 19.969 L 78.183 2.852 L 78.183 2.852 Z " fill-rule="evenodd" fill="none"/><path d=" M 78.183 117.148 C 98.486 110.589 114.059 93.346 118.367 72 L 118.367 72 L 118.367 72 L 100.258 72 C 96.296 85.292 85.925 95.833 72.737 100.031 L 78.183 117.148 Z  M 41.817 117.148 C 21.514 110.589 5.941 93.346 1.633 72 L 19.742 72 C 23.704 85.292 34.075 95.833 47.263 100.031 L 41.817 117.148 Z  M 41.817 2.852 C 21.514 9.411 5.941 26.654 1.633 48 L 1.633 48 L 19.742 48 C 23.704 34.708 34.075 24.167 47.263 19.969 L 41.817 2.852 L 41.817 2.852 Z  M 78.183 2.852 C 98.486 9.411 114.059 26.654 118.367 48 L 100.258 48 C 96.296 34.708 85.925 24.167 72.737 19.969 L 78.183 2.852 L 78.183 2.852 Z " fill-rule="evenodd" fill="none" mask="url(#_mask_Mk7pYH3vWsaHxrdaux2tIghFKhPdnFeZ)" vector-effect="non-scaling-stroke" stroke-width="2" stroke="rgb(255,255,255)" stroke-linejoin="miter" stroke-linecap="square" stroke-miterlimit="3"/><path d=" M 33.63 117.674 L 23.238 111.674 L 31.833 102.787 L 37.029 105.787 Q 33.176 118.085 33.63 117.674 Z " fill="rgb(255,255,255)"/><path d=" M 117.674 86.37 L 111.674 96.762 L 102.787 88.167 L 105.787 82.971 Q 118.085 86.824 117.674 86.37 Z " fill="rgb(255,255,255)"/><path d=" M 19.602 108.883 L 11.117 100.398 L 21.719 94.039 L 25.961 98.281 Q 19.057 109.163 19.602 108.883 Z " fill="rgb(255,255,255)"/><path d=" M 108.883 100.398 L 100.398 108.883 L 94.039 98.281 L 98.281 94.039 Q 109.163 100.943 108.883 100.398 Z " fill="rgb(255,255,255)"/><path d=" M 8.326 96.762 L 2.326 86.37 L 14.213 82.971 L 17.213 88.167 Q 7.728 96.891 8.326 96.762 Z " fill="rgb(255,255,255)"/><path d=" M 96.762 111.674 L 86.37 117.674 L 82.971 105.787 L 88.167 102.787 Q 96.891 112.272 96.762 111.674 Z " fill="rgb(255,255,255)"/><path d=" M 86.37 2.326 L 96.762 8.326 L 88.167 17.213 L 82.971 14.213 Q 86.824 1.915 86.37 2.326 Z " fill="rgb(255,255,255)"/><path d=" M 2.326 33.63 L 8.326 23.238 L 17.213 31.833 L 14.213 37.029 Q 1.915 33.176 2.326 33.63 Z " fill="rgb(255,255,255)"/><path d=" M 100.398 11.117 L 108.883 19.602 L 98.281 25.961 L 94.039 21.719 Q 100.943 10.837 100.398 11.117 Z " fill="rgb(255,255,255)"/><path d=" M 11.117 19.602 L 19.602 11.117 L 25.961 21.719 L 21.719 25.961 Q 10.837 19.057 11.117 19.602 Z " fill="rgb(255,255,255)"/><path d=" M 111.674 23.238 L 117.674 33.63 L 105.787 37.029 L 102.787 31.833 Q 112.272 23.109 111.674 23.238 Z " fill="rgb(255,255,255)"/><path d=" M 23.238 8.326 L 33.63 2.326 L 37.029 14.213 L 31.833 17.213 Q 23.109 7.728 23.238 8.326 Z " fill="rgb(255,255,255)"/></g></g></g></svg>