<?xml version="1.0" encoding="UTF-8" standalone="no"?><!-- Generator: Gravit.io --><svg xmlns="http://www.w3.org/2000/svg" xmlns:xlink="http://www.w3.org/1999/xlink" style="isolation:isolate" viewBox="0 0 30 30" width="30pt" height="30pt"><defs><clipPath id="_clipPath_nXh6SgnhWhJuFkWNbPvU3dU2NVRIUghr"><rect width="30" height="30"/></clipPath></defs><g clip-path="url(#_clipPath_nXh6SgnhWhJuFkWNbPvU3dU2NVRIUghr)"><g><mask id="_mask_ReaOyBlD3EuhXsrO2mWWtgO5dKzOCDQz"><path d=" M 21 9 C 21 5.689 18.311 3 15 3 L 15 3 C 11.689 3 9 5.689 9 9 L 9 9 L 9 21 L 9 21 L 9 21 C 9 24.311 11.689 27 15 27 C 18.311 27 21 24.311 21 21 L 21 21 L 21 9 L 21 9 Z " fill-rule="evenodd" fill="white" stroke="none"/></mask><path d=" M 21 9 C 21 5.689 18.311 3 15 3 L 15 3 C 11.689 3 9 5.689 9 9 L 9 9 L 9 21 L 9 21 L 9 21 C 9 24.311 11.689 27 15 27 C 18.311 27 21 24.311 21 21 L 21 21 L 21 9 L 21 9 Z " fill-rule="evenodd" fill="none"/><path d=" M 21 9 C 21 5.689 18.311 3 15 3 L 15 3 C 11.689 3 9 5.689 9 9 L 9 9 L 9 21 L 9 21 L 9 21 C 9 24.311 11.689 27 15 27 C 18.311 27 21 24.311 21 21 L 21 21 L 21 9 L 21 9 Z " fill-rule="evenodd" fill="none" mask="url(#_mask_ReaOyBlD3EuhXsrO2mWWtgO5dKzOCDQz)" vector-effect="non-scaling-stroke" stroke-width="2" stroke="rgb(255,255,255)" stroke-linejoin="miter" stroke-linecap="square" stroke-miterlimit="3"/><mask id="_mask_JZFtBOPscEpjedpt3QIfmrCF1mssjjx9"><path d=" M 17.416 26.493 L 18 30 L 12 30 L 12.584 26.493 C 13.324 26.819 14.141 27 15 27 C 15.859 27 16.676 26.819 17.416 26.493 Z " fill-rule="evenodd" fill="white" stroke="none"/></mask><path d=" M 17.416 26.493 L 18 30 L 12 30 L 12.584 26.493 C 13.324 26.819 14.141 27 15 27 C 15.859 27 16.676 26.819 17.416 26.493 Z " fill-rule="evenodd" fill="none"/><path d=" M 17.416 26.493 L 18 30 L 12 30 L 12.584 26.493 C 13.324 26.819 14.141 27 15 27 C 15.859 27 16.676 26.819 17.416 26.493 Z " fill-rule="evenodd" fill="none" mask="url(#_mask_JZFtBOPscEpjedpt3QIfmrCF1mssjjx9)" vector-effect="non-scaling-stroke" stroke-width="2" stroke="rgb(255,255,255)" stroke-linejoin="miter" stroke-linecap="square" stroke-miterlimit="3"/><mask id="_mask_Y8LrHWMuDB0TtHn5HVI7TtwKEPROI8f3"><path d=" M 6 12 L 3 15 L 3 30 L 6 27 L 6 12 Z " fill="white" stroke="none"/></mask><path d=" M 6 12 L 3 15 L 3 30 L 6 27 L 6 12 Z " fill="none"/><path d=" M 6 12 L 3 15 L 3 30 L 6 27 L 6 12 Z " fill="none" mask="url(#_mask_Y8LrHWMuDB0TtHn5HVI7TtwKEPROI8f3)" vector-effect="non-scaling-stroke" stroke-width="2" stroke="rgb(255,255,255)" stroke-linejoin="miter" stroke-linecap="square" stroke-miterlimit="3"/><mask id="_mask_97NTOTgYHP4qlRsF6JZx7kz0eytJbB7n"><path d=" M 24 12 L 27 15 L 27 30 L 24 27 L 24 12 Z " fill="white" stroke="none"/></mask><path d=" M 24 12 L 27 15 L 27 30 L 24 27 L 24 12 Z " fill="none"/><path d=" M 24 12 L 27 15 L 27 30 L 24 27 L 24 12 Z " fill="none" mask="url(#_mask_97NTOTgYHP4qlRsF6JZx7kz0eytJbB7n)" vector-effect="non-scaling-stroke" stroke-width="2" stroke="rgb(255,255,255)" stroke-linejoin="miter" stroke-linecap="square" stroke-miterlimit="3"/><mask id="_mask_oPiyLWmrtHDDhtgyQ8PvsO7NVoB86fBY"><rect x="6" y="18" width="3" height="3" fill="white" stroke="none"/></mask><rect x="6" y="18" width="3" height="3" transform="matrix(0,1,-1,0,27,12)" fill="none"/><rect x="6" y="18" width="3" height="3" transform="matrix(0,1,-1,0,27,12)" fill="none" mask="url(#_mask_oPiyLWmrtHDDhtgyQ8PvsO7NVoB86fBY)" vector-effect="non-scaling-stroke" stroke-width="2" stroke="rgb(255,255,255)" stroke-linejoin="miter" stroke-linecap="square" stroke-miterlimit="2"/><mask id="_mask_dZEmUfYnGMnaL3xGtAQt01jXJMqIfDLS"><rect x="21" y="18" width="3" height="3" fill="white" stroke="none"/></mask><rect x="21" y="18" width="3" height="3" transform="matrix(0,-1,1,0,3,42)" fill="none"/><rect x="21" y="18" width="3" height="3" transform="matrix(0,-1,1,0,3,42)" fill="none" mask="url(#_mask_dZEmUfYnGMnaL3xGtAQt01jXJMqIfDLS)" vector-effect="non-scaling-stroke" stroke-width="2" stroke="rgb(255,255,255)" stroke-linejoin="miter" stroke-linecap="square" stroke-miterlimit="2"/></g></g></svg>