<?xml version="1.0" encoding="UTF-8" standalone="no"?><!-- Generator: Gravit.io --><svg xmlns="http://www.w3.org/2000/svg" xmlns:xlink="http://www.w3.org/1999/xlink" style="isolation:isolate" viewBox="0 0 12 14" width="12pt" height="14pt"><defs><clipPath id="_clipPath_EZ7s5k0Yc01ExcNsZBkYiCjIXQX4w97R"><rect width="12" height="14"/></clipPath></defs><g clip-path="url(#_clipPath_EZ7s5k0Yc01ExcNsZBkYiCjIXQX4w97R)"><g><mask id="_mask_ercDPsR6WpZLXi5bR1E1YNcpqvxGIw14"><path d=" M 9 3 C 9 1.344 7.656 0 6 0 L 6 0 C 4.344 0 3 1.344 3 3 L 3 3 L 3 9 L 3 9 C 3 10.656 4.344 12 6 12 C 7.656 12 9 10.656 9 9 L 9 9 L 9 3 L 9 3 Z " fill-rule="evenodd" fill="white" stroke="none"/></mask><path d=" M 9 3 C 9 1.344 7.656 0 6 0 L 6 0 C 4.344 0 3 1.344 3 3 L 3 3 L 3 9 L 3 9 C 3 10.656 4.344 12 6 12 C 7.656 12 9 10.656 9 9 L 9 9 L 9 3 L 9 3 Z " fill-rule="evenodd" fill="rgb(255,255,255)"/><path d=" M 9 3 C 9 1.344 7.656 0 6 0 L 6 0 C 4.344 0 3 1.344 3 3 L 3 3 L 3 9 L 3 9 C 3 10.656 4.344 12 6 12 C 7.656 12 9 10.656 9 9 L 9 9 L 9 3 L 9 3 Z " fill-rule="evenodd" fill="rgb(255,255,255)" mask="url(#_mask_ercDPsR6WpZLXi5bR1E1YNcpqvxGIw14)" vector-effect="non-scaling-stroke" stroke-width="2" stroke="rgb(255,255,255)" stroke-linejoin="miter" stroke-linecap="square" stroke-miterlimit="3"/><mask id="_mask_twfuV8oIZ3jsWVxWsDz9UVEokwVFztbd"><path d=" M 7.208 11.747 L 7.5 13.5 L 4.5 13.5 L 4.792 11.747 C 5.162 11.91 5.57 12 6 12 C 6.43 12 6.838 11.91 7.208 11.747 Z " fill-rule="evenodd" fill="white" stroke="none"/></mask><path d=" M 7.208 11.747 L 7.5 13.5 L 4.5 13.5 L 4.792 11.747 C 5.162 11.91 5.57 12 6 12 C 6.43 12 6.838 11.91 7.208 11.747 Z " fill-rule="evenodd" fill="rgb(255,255,255)"/><path d=" M 7.208 11.747 L 7.5 13.5 L 4.5 13.5 L 4.792 11.747 C 5.162 11.91 5.57 12 6 12 C 6.43 12 6.838 11.91 7.208 11.747 Z " fill-rule="evenodd" fill="rgb(255,255,255)" mask="url(#_mask_twfuV8oIZ3jsWVxWsDz9UVEokwVFztbd)" vector-effect="non-scaling-stroke" stroke-width="2" stroke="rgb(255,255,255)" stroke-linejoin="miter" stroke-linecap="square" stroke-miterlimit="3"/><mask id="_mask_WKvj6VkxWTJsVER7c4zUq8bLyVXDnqOf"><path d=" M 1.5 4.5 L 0 6 L 0 13.5 L 1.5 12 L 1.5 4.5 Z " fill="white" stroke="none"/></mask><path d=" M 1.5 4.5 L 0 6 L 0 13.5 L 1.5 12 L 1.5 4.5 Z " fill="rgb(255,255,255)"/><path d=" M 1.5 4.5 L 0 6 L 0 13.5 L 1.5 12 L 1.5 4.5 Z " fill="rgb(255,255,255)" mask="url(#_mask_WKvj6VkxWTJsVER7c4zUq8bLyVXDnqOf)" vector-effect="non-scaling-stroke" stroke-width="2" stroke="rgb(255,255,255)" stroke-linejoin="miter" stroke-linecap="square" stroke-miterlimit="3"/><mask id="_mask_yneBl4Mfu8iL1rnEE0Sej5WqJQUod28o"><path d=" M 10.5 4.5 L 12 6 L 12 13.5 L 10.5 12 L 10.5 4.5 Z " fill="white" stroke="none"/></mask><path d=" M 10.5 4.5 L 12 6 L 12 13.5 L 10.5 12 L 10.5 4.5 Z " fill="rgb(255,255,255)"/><path d=" M 10.5 4.5 L 12 6 L 12 13.5 L 10.5 12 L 10.5 4.5 Z " fill="rgb(255,255,255)" mask="url(#_mask_yneBl4Mfu8iL1rnEE0Sej5WqJQUod28o)" vector-effect="non-scaling-stroke" stroke-width="2" stroke="rgb(255,255,255)" stroke-linejoin="miter" stroke-linecap="square" stroke-miterlimit="3"/><mask id="_mask_nD6svVgvoIc1EjwrIhBqTgr3JN08y8eF"><rect x="1.5" y="7.5" width="1.5" height="1.5" fill="white" stroke="none"/></mask><rect x="1.5" y="7.5" width="1.5" height="1.5" transform="matrix(0,1,-1,0,10.5,6)" fill="rgb(255,255,255)"/><rect x="1.5" y="7.5" width="1.5" height="1.5" transform="matrix(0,1,-1,0,10.5,6)" fill="rgb(255,255,255)" mask="url(#_mask_nD6svVgvoIc1EjwrIhBqTgr3JN08y8eF)" vector-effect="non-scaling-stroke" stroke-width="2" stroke="rgb(255,255,255)" stroke-linejoin="miter" stroke-linecap="square" stroke-miterlimit="2"/><mask id="_mask_OA9MCasiOvhRorbDpCsXQNUAKbaZY52y"><rect x="9" y="7.5" width="1.5" height="1.5" fill="white" stroke="none"/></mask><rect x="9" y="7.5" width="1.5" height="1.5" transform="matrix(0,-1,1,0,1.5,18)" fill="rgb(255,255,255)"/><rect x="9" y="7.5" width="1.5" height="1.5" transform="matrix(0,-1,1,0,1.5,18)" fill="rgb(255,255,255)" mask="url(#_mask_OA9MCasiOvhRorbDpCsXQNUAKbaZY52y)" vector-effect="non-scaling-stroke" stroke-width="2" stroke="rgb(255,255,255)" stroke-linejoin="miter" stroke-linecap="square" stroke-miterlimit="2"/></g></g></svg>