<?xml version="1.0" encoding="UTF-8" standalone="no"?><!-- Generator: Gravit.io --><svg xmlns="http://www.w3.org/2000/svg" xmlns:xlink="http://www.w3.org/1999/xlink" style="isolation:isolate" viewBox="0 0 30 30" width="30pt" height="30pt"><defs><clipPath id="_clipPath_LYCJNmPMTJ1qwS8i8u9RoOSSG5UwGj7s"><rect width="30" height="30"/></clipPath></defs><g clip-path="url(#_clipPath_LYCJNmPMTJ1qwS8i8u9RoOSSG5UwGj7s)"><g><mask id="_mask_0LEAVVKFFZoP4YLW1dLCN0M4xiLPNGkN"><path d=" M 21 21 C 24.311 21 27 18.311 27 15 L 27 15 C 27 11.689 24.311 9 21 9 L 21 9 L 9 9 L 9 9 C 5.689 9 3 11.689 3 15 C 3 18.311 5.689 21 9 21 L 9 21 L 21 21 L 21 21 Z " fill-rule="evenodd" fill="white" stroke="none"/></mask><path d=" M 21 21 C 24.311 21 27 18.311 27 15 L 27 15 C 27 11.689 24.311 9 21 9 L 21 9 L 9 9 L 9 9 C 5.689 9 3 11.689 3 15 C 3 18.311 5.689 21 9 21 L 9 21 L 21 21 L 21 21 Z " fill-rule="evenodd" fill="none"/><path d=" M 21 21 C 24.311 21 27 18.311 27 15 L 27 15 C 27 11.689 24.311 9 21 9 L 21 9 L 9 9 L 9 9 C 5.689 9 3 11.689 3 15 C 3 18.311 5.689 21 9 21 L 9 21 L 21 21 L 21 21 Z " fill-rule="evenodd" fill="none" mask="url(#_mask_0LEAVVKFFZoP4YLW1dLCN0M4xiLPNGkN)" vector-effect="non-scaling-stroke" stroke-width="2" stroke="rgb(255,255,255)" stroke-linejoin="miter" stroke-linecap="square" stroke-miterlimit="3"/><mask id="_mask_KMzsL54OcfED0Ns9aN6n18gRuaS2nBiC"><path d=" M 3.507 17.416 L 0 18 L 0 12 L 3.507 12.584 C 3.181 13.324 3 14.141 3 15 C 3 15.859 3.181 16.676 3.507 17.416 Z " fill-rule="evenodd" fill="white" stroke="none"/></mask><path d=" M 3.507 17.416 L 0 18 L 0 12 L 3.507 12.584 C 3.181 13.324 3 14.141 3 15 C 3 15.859 3.181 16.676 3.507 17.416 Z " fill-rule="evenodd" fill="none"/><path d=" M 3.507 17.416 L 0 18 L 0 12 L 3.507 12.584 C 3.181 13.324 3 14.141 3 15 C 3 15.859 3.181 16.676 3.507 17.416 Z " fill-rule="evenodd" fill="none" mask="url(#_mask_KMzsL54OcfED0Ns9aN6n18gRuaS2nBiC)" vector-effect="non-scaling-stroke" stroke-width="2" stroke="rgb(255,255,255)" stroke-linejoin="miter" stroke-linecap="square" stroke-miterlimit="3"/><mask id="_mask_d8SmzKbeGs1Tz8MeCQB5MzX6TDwEZu3Z"><path d=" M 18 6 L 15 3 L 0 3 L 3 6 L 18 6 Z " fill="white" stroke="none"/></mask><path d=" M 18 6 L 15 3 L 0 3 L 3 6 L 18 6 Z " fill="none"/><path d=" M 18 6 L 15 3 L 0 3 L 3 6 L 18 6 Z " fill="none" mask="url(#_mask_d8SmzKbeGs1Tz8MeCQB5MzX6TDwEZu3Z)" vector-effect="non-scaling-stroke" stroke-width="2" stroke="rgb(255,255,255)" stroke-linejoin="miter" stroke-linecap="square" stroke-miterlimit="3"/><mask id="_mask_u1uLiiEte9hfTiFMLhdG43xoHs40P0fz"><path d=" M 18 24 L 15 27 L 0 27 L 3 24 L 18 24 Z " fill="white" stroke="none"/></mask><path d=" M 18 24 L 15 27 L 0 27 L 3 24 L 18 24 Z " fill="none"/><path d=" M 18 24 L 15 27 L 0 27 L 3 24 L 18 24 Z " fill="none" mask="url(#_mask_u1uLiiEte9hfTiFMLhdG43xoHs40P0fz)" vector-effect="non-scaling-stroke" stroke-width="2" stroke="rgb(255,255,255)" stroke-linejoin="miter" stroke-linecap="square" stroke-miterlimit="3"/><mask id="_mask_pcj9p8Zd5dqAOLIqzCe1Thd2nWxRZAW9"><rect x="9" y="6" width="3" height="3" fill="white" stroke="none"/></mask><rect x="9" y="6" width="3" height="3" transform="matrix(-1,0,0,-1,21,15)" fill="none"/><rect x="9" y="6" width="3" height="3" transform="matrix(-1,0,0,-1,21,15)" fill="none" mask="url(#_mask_pcj9p8Zd5dqAOLIqzCe1Thd2nWxRZAW9)" vector-effect="non-scaling-stroke" stroke-width="2" stroke="rgb(255,255,255)" stroke-linejoin="miter" stroke-linecap="square" stroke-miterlimit="2"/><mask id="_mask_Tv2Xil38Es5LgnNbvl0aMqa9kLXHU7SB"><rect x="9" y="21" width="3" height="3" fill="white" stroke="none"/></mask><rect x="9" y="21" width="3" height="3" transform="matrix(1,0,0,1,0,0)" fill="none"/><rect x="9" y="21" width="3" height="3" transform="matrix(1,0,0,1,0,0)" fill="none" mask="url(#_mask_Tv2Xil38Es5LgnNbvl0aMqa9kLXHU7SB)" vector-effect="non-scaling-stroke" stroke-width="2" stroke="rgb(255,255,255)" stroke-linejoin="miter" stroke-linecap="square" stroke-miterlimit="2"/></g></g></svg>