<?xml version="1.0" encoding="UTF-8" standalone="no"?><!-- Generator: Gravit.io --><svg xmlns="http://www.w3.org/2000/svg" xmlns:xlink="http://www.w3.org/1999/xlink" style="isolation:isolate" viewBox="0 0 21 9" width="21pt" height="9pt"><defs><clipPath id="_clipPath_yfKXRFEpmPjo0SR4mgUIraenoFLzuPiv"><rect width="21" height="9"/></clipPath></defs><g clip-path="url(#_clipPath_yfKXRFEpmPjo0SR4mgUIraenoFLzuPiv)"><path d=" M 16.5 9 L 16.5 9 L 13.5 9 L 13.5 0 L 13.5 0 L 13.5 0 L 13.5 0 L 16.5 0 L 16.5 9 Z  M 18 8.744 C 19.747 8.125 21 6.458 21 4.5 L 21 4.5 C 21 2.542 19.747 0.875 18 0.256 L 18 8.744 Z  M 4.5 0 L 4.5 0 L 4.5 0 L 4.5 0 L 16.5 0 L 16.5 0 L 16.5 0 C 17.026 0 17.531 0.09 4.5 0 Z  M 3 0.256 C 1.253 0.875 0 2.542 0 4.5 L 0 4.5 C 0 6.458 1.253 8.125 3 8.744 L 3 0.256 Z  M 7.5 9 L 4.5 9 L 4.5 9 L 4.5 9 C 3.974 9 3.469 8.91 7.5 9 Z  M 9 9 L 12 9 L 12 0 L 9 0 L 9 0 L 9 9 Z  M 4.5 0 L 7.5 0 L 7.5 9 L 7.5 9 L 4.5 9 L 4.5 0 L 4.5 0 L 4.5 0 Z " fill-rule="evenodd" fill="rgb(255,255,255)"/></g></svg>