<?xml version="1.0" encoding="UTF-8" standalone="no"?><!-- Generator: Gravit.io --><svg xmlns="http://www.w3.org/2000/svg" xmlns:xlink="http://www.w3.org/1999/xlink" style="isolation:isolate" viewBox="0 0 30 36" width="30pt" height="36pt"><defs><clipPath id="_clipPath_BMKehSueu09T3Fzl36tvVQcMkeiTeoO4"><rect width="30" height="36"/></clipPath></defs><g clip-path="url(#_clipPath_BMKehSueu09T3Fzl36tvVQcMkeiTeoO4)"><rect width="30" height="36" style="fill:rgb(64,55,55)" fill-opacity="0"/><path d=" M 12 6 C 12 4.344 13.344 3 15 3 C 16.656 3 18 4.344 18 6 C 18 7.656 16.656 9 15 9 L 15 9 C 13.344 9 12 7.656 12 6 L 12 6 L 12 6 L 12 6 Z  M 6 0 L 15 0 L 24 0 L 6 0 L 6 0 L 6 0 L 6 0 Z  M 0 19.5 L 12 19.5 L 12 22.5 L 0 22.5 L 0 19.5 L 0 19.5 L 0 19.5 L 0 19.5 Z  M 18 19.5 L 30 19.5 L 30 22.5 L 18 22.5 L 18 19.5 L 18 19.5 L 18 19.5 L 18 19.5 Z  M 16.5 24 L 16.5 36 L 13.5 36 L 13.5 24 L 16.5 24 L 16.5 24 L 16.5 24 Z  M 20.021 9.284 C 20.64 8.34 21 7.212 21 6 C 21 2.689 18.311 0 15 0 L 15 0 C 11.689 0 9 2.689 9 6 L 9 6 C 9 7.212 9.36 8.34 9.979 9.284 L 15 21 L 20.021 9.284 L 20.021 9.284 L 20.021 9.284 L 20.021 9.284 Z  M 9.21 10.489 C 6.356 12.066 4.211 14.77 3.379 18 L 3.379 18 L 6.513 18 C 7.219 16.006 8.608 14.333 10.399 13.265 L 10.399 13.265 L 9.21 10.489 L 9.21 10.489 Z  M 19.601 13.265 L 19.601 13.265 C 21.392 14.333 22.781 16.006 23.487 18 L 26.621 18 C 25.789 14.77 23.644 12.066 20.79 10.489 L 19.601 13.265 L 19.601 13.265 Z  M 18 32.621 C 22.214 31.535 25.535 28.214 26.621 24 L 26.621 24 L 23.487 24 C 22.583 26.556 20.556 28.583 18 29.487 L 18 32.621 L 18 32.621 L 18 32.621 Z  M 12 32.621 C 7.786 31.535 4.465 28.214 3.379 24 L 6.513 24 C 7.417 26.556 9.444 28.583 12 29.487 L 12 32.621 L 12 32.621 L 12 32.621 Z " fill-rule="evenodd" fill="rgb(255,255,255)"/></g></svg>