<?xml version="1.0" encoding="UTF-8" standalone="no"?><!-- Generator: Gravit.io --><svg xmlns="http://www.w3.org/2000/svg" xmlns:xlink="http://www.w3.org/1999/xlink" style="isolation:isolate" viewBox="0 0 60 72" width="60pt" height="72pt"><defs><clipPath id="_clipPath_cj44Vm03f9yNxV85gyEnaXbSXoVXX7X3"><rect width="60" height="72"/></clipPath></defs><g clip-path="url(#_clipPath_cj44Vm03f9yNxV85gyEnaXbSXoVXX7X3)"><clipPath id="_clipPath_v7V756yNydxGJ81guchqyA1JQqZUme6s"><rect x="0" y="0" width="60" height="72" transform="matrix(1,0,0,1,0,0)" fill="rgb(255,255,255)"/></clipPath><g clip-path="url(#_clipPath_v7V756yNydxGJ81guchqyA1JQqZUme6s)"><g><rect x="0" y="0" width="60" height="72" transform="matrix(1,0,0,1,0,0)" fill="none"/><path d=" M 24 12 C 24 8.688 26.688 6 30 6 C 33.312 6 36 8.688 36 12 C 36 15.312 33.312 18 30 18 L 30 18 C 26.688 18 24 15.312 24 12 L 24 12 L 24 12 L 24 12 Z  M 12 0 L 30 0 L 48 0 L 12 0 L 12 0 L 12 0 L 12 0 Z  M 0 39 L 24 39 L 24 45 L 0 45 L 0 39 L 0 39 L 0 39 L 0 39 Z  M 36 39 L 60 39 L 60 45 L 36 45 L 36 39 L 36 39 L 36 39 L 36 39 Z  M 33 48 L 33 72 L 27 72 L 27 48 L 33 48 L 33 48 L 33 48 Z  M 40.042 18.568 C 41.28 16.68 42 14.424 42 12 C 42 5.378 36.622 0 30 0 L 30 0 C 23.378 0 18 5.378 18 12 L 18 12 C 18 14.424 18.72 16.68 19.958 18.568 L 30 42 L 40.042 18.568 L 40.042 18.568 L 40.042 18.568 L 40.042 18.568 Z  M 18.42 20.978 C 12.712 24.132 8.422 29.54 6.758 36 L 6.758 36 L 13.026 36 C 14.438 32.012 17.216 28.666 20.798 26.53 L 20.798 26.53 L 18.42 20.978 L 18.42 20.978 Z  M 39.202 26.53 L 39.202 26.53 C 42.784 28.666 45.562 32.012 46.974 36 L 53.242 36 C 51.578 29.54 47.288 24.132 41.58 20.978 L 39.202 26.53 L 39.202 26.53 Z  M 36 65.242 C 44.428 63.07 51.07 56.428 53.242 48 L 53.242 48 L 46.974 48 C 45.166 53.112 41.112 57.166 36 58.974 L 36 65.242 L 36 65.242 L 36 65.242 Z  M 24 65.242 C 15.572 63.07 8.93 56.428 6.758 48 L 13.026 48 C 14.834 53.112 18.888 57.166 24 58.974 L 24 65.242 L 24 65.242 L 24 65.242 Z " fill-rule="evenodd" fill="rgb(255,255,255)"/></g></g></g></svg>