<?xml version="1.0" encoding="UTF-8" standalone="no"?><!-- Generator: Gravit.io --><svg xmlns="http://www.w3.org/2000/svg" xmlns:xlink="http://www.w3.org/1999/xlink" style="isolation:isolate" viewBox="0 0 24 24" width="24pt" height="24pt"><defs><clipPath id="_clipPath_T5FV1JQ0kaCXBw760fMrMbF2adG5eh8q"><rect width="24" height="24"/></clipPath></defs><g clip-path="url(#_clipPath_T5FV1JQ0kaCXBw760fMrMbF2adG5eh8q)"><path d=" M 0.379 9 C 1.465 4.786 4.786 1.465 9 0.379 L 9 0.379 L 9 1.936 C 5.615 2.944 2.944 5.615 1.936 9 L 0.379 9 Z  M 0.379 15 C 1.465 19.214 4.786 22.535 9 23.621 L 9 22.064 C 5.615 21.056 2.944 18.385 1.936 15 L 0.379 15 Z  M 23.621 9 C 22.535 4.786 19.214 1.465 15 0.379 L 15 0.379 L 15 1.936 C 18.385 2.944 21.056 5.615 22.064 9 L 23.621 9 Z  M 23.621 15 C 22.535 19.214 19.214 22.535 15 23.621 L 15 22.064 C 18.385 21.056 21.056 18.385 22.064 15 L 23.621 15 Z " fill-rule="evenodd" fill="rgb(255,255,255)"/></g></svg>