<?xml version="1.0" encoding="UTF-8" standalone="no"?><!-- Generator: Gravit.io --><svg xmlns="http://www.w3.org/2000/svg" xmlns:xlink="http://www.w3.org/1999/xlink" style="isolation:isolate" viewBox="0 0 60 50" width="60pt" height="50pt"><defs><clipPath id="_clipPath_vHSfKFmBznwHbXJARMrkVHaIxcgyklyW"><rect width="60" height="50"/></clipPath></defs><g clip-path="url(#_clipPath_vHSfKFmBznwHbXJARMrkVHaIxcgyklyW)"><path d=" M 57 25 L 21 19 L 15 25 L 21 31 L 57 25 Z " fill="none" vector-effect="non-scaling-stroke" stroke-width="2" stroke="rgb(255,255,255)" stroke-linejoin="miter" stroke-linecap="square" stroke-miterlimit="3"/><path d=" M 3 43 L 9 37 L 27 37 L 3 43 Z " fill="none" vector-effect="non-scaling-stroke" stroke-width="2" stroke="rgb(255,255,255)" stroke-linejoin="miter" stroke-linecap="square" stroke-miterlimit="3"/><path d=" M 3 7 L 9 13 L 27 13 L 3 7 Z " fill="none" vector-effect="non-scaling-stroke" stroke-width="2" stroke="rgb(255,255,255)" stroke-linejoin="miter" stroke-linecap="square" stroke-miterlimit="3"/><path d=" M 21 31 L 39 37 L 15 37 L 9 25 L 15 13 L 39 13 L 21 19 L 15 25 L 21 31 Z " fill="none" vector-effect="non-scaling-stroke" stroke-width="2" stroke="rgb(255,255,255)" stroke-linejoin="miter" stroke-linecap="square" stroke-miterlimit="3"/><path d=" M 9.667 26.333 L 3 28 L 3 22 L 9.667 23.667 L 9 25 L 9.667 26.333 Z " fill-rule="evenodd" fill="none" vector-effect="non-scaling-stroke" stroke-width="2" stroke="rgb(255,255,255)" stroke-linejoin="miter" stroke-linecap="square" stroke-miterlimit="3"/></g></svg>