<?xml version="1.0" encoding="UTF-8" standalone="no"?><!-- Generator: Gravit.io --><svg xmlns="http://www.w3.org/2000/svg" xmlns:xlink="http://www.w3.org/1999/xlink" style="isolation:isolate" viewBox="0 0 130 130" width="130pt" height="130pt"><defs><clipPath id="_clipPath_uFFgodex4uH7uYs8534wEcpqaOERIzSg"><rect width="130" height="130"/></clipPath></defs><g clip-path="url(#_clipPath_uFFgodex4uH7uYs8534wEcpqaOERIzSg)"><g><mask id="_mask_gxCxEVYPmfPbx5cXVABjnzzoeoNS7mOF"><path d=" M 79.98 65 C 79.98 73.279 73.259 80 64.98 80 C 56.702 80 49.98 73.279 49.98 65 C 49.98 56.721 56.702 50 64.98 50 C 73.259 50 79.98 56.721 79.98 65 Z " fill="white" stroke="none"/></mask><path d=" M 79.98 65 C 79.98 73.279 73.259 80 64.98 80 C 56.702 80 49.98 73.279 49.98 65 C 49.98 56.721 56.702 50 64.98 50 C 73.259 50 79.98 56.721 79.98 65 Z " fill="none"/><path d=" M 79.98 65 C 79.98 73.279 73.259 80 64.98 80 C 56.702 80 49.98 73.279 49.98 65 C 49.98 56.721 56.702 50 64.98 50 C 73.259 50 79.98 56.721 79.98 65 Z " fill="none" mask="url(#_mask_gxCxEVYPmfPbx5cXVABjnzzoeoNS7mOF)" vector-effect="non-scaling-stroke" stroke-width="2" stroke="rgb(255,255,255)" stroke-linejoin="miter" stroke-linecap="square" stroke-miterlimit="3"/><path d=" M 72.48 65 C 72.48 69.139 69.12 72.5 64.98 72.5 C 60.841 72.5 57.48 69.139 57.48 65 C 57.48 60.861 60.841 57.5 64.98 57.5 C 69.12 57.5 72.48 60.861 72.48 65 Z " fill="rgb(255,255,255)"/><g><g><mask id="_mask_YK1jrDuoDv1oFF9QZmeKmTvADaZbeiAL"><path d=" M 77.581 56.864 L 72.225 33.8 L 64.98 2.601 L 57.735 33.8 L 52.379 56.864 C 55.052 52.735 59.699 50 64.98 50 C 70.261 50 74.908 52.735 77.581 56.864 Z " fill-rule="evenodd" fill="white" stroke="none"/></mask><path d=" M 77.581 56.864 L 72.225 33.8 L 64.98 2.601 L 57.735 33.8 L 52.379 56.864 C 55.052 52.735 59.699 50 64.98 50 C 70.261 50 74.908 52.735 77.581 56.864 Z " fill-rule="evenodd" fill="none"/><path d=" M 77.581 56.864 L 72.225 33.8 L 64.98 2.601 L 57.735 33.8 L 52.379 56.864 C 55.052 52.735 59.699 50 64.98 50 C 70.261 50 74.908 52.735 77.581 56.864 Z " fill-rule="evenodd" fill="none" mask="url(#_mask_YK1jrDuoDv1oFF9QZmeKmTvADaZbeiAL)" vector-effect="non-scaling-stroke" stroke-width="2" stroke="rgb(255,255,255)" stroke-linejoin="miter" stroke-linecap="square" stroke-miterlimit="3"/><path d=" M 68.293 29.726 C 68.293 31.555 66.809 33.039 64.98 33.039 C 63.152 33.039 61.667 31.555 61.667 29.726 C 61.667 27.898 63.152 26.413 64.98 26.413 C 66.809 26.413 68.293 27.898 68.293 29.726 Z " fill="rgb(255,255,255)"/><path d=" M 69.48 41.101 C 69.48 43.584 67.464 45.601 64.98 45.601 C 62.497 45.601 60.48 43.584 60.48 41.101 C 60.48 38.617 62.497 36.601 64.98 36.601 C 67.464 36.601 69.48 38.617 69.48 41.101 Z " fill="rgb(255,255,255)"/><path d=" M 70.216 25.148 L 73.98 12.601 L 72.319 34.202 L 72.225 33.8 L 70.216 25.148 Z  M 57.642 34.202 L 55.98 12.601 L 59.744 25.148 L 57.735 33.8 L 57.642 34.202 Z " fill-rule="evenodd" fill="rgb(255,255,255)"/><path d=" M 72.289 34.074 L 82.98 21.601 L 74.383 43.093 L 72.289 34.074 Z  M 55.577 43.093 L 46.98 21.601 L 57.672 34.074 L 55.577 43.093 Z " fill-rule="evenodd" fill="rgb(255,255,255)"/></g><g><mask id="_mask_BOjL9WYLoTUSx93zEFxFRIKoC3qRfVv6"><path d=" M 51.634 58.155 L 34.338 74.325 L 10.941 96.2 L 41.583 86.874 L 64.235 79.981 C 59.322 79.73 54.63 77.073 51.99 72.5 C 49.35 67.927 49.394 62.535 51.634 58.155 Z " fill-rule="evenodd" fill="white" stroke="none"/></mask><path d=" M 51.634 58.155 L 34.338 74.325 L 10.941 96.2 L 41.583 86.874 L 64.235 79.981 C 59.322 79.73 54.63 77.073 51.99 72.5 C 49.35 67.927 49.394 62.535 51.634 58.155 Z " fill-rule="evenodd" fill="none"/><path d=" M 51.634 58.155 L 34.338 74.325 L 10.941 96.2 L 41.583 86.874 L 64.235 79.981 C 59.322 79.73 54.63 77.073 51.99 72.5 C 49.35 67.927 49.394 62.535 51.634 58.155 Z " fill-rule="evenodd" fill="none" mask="url(#_mask_BOjL9WYLoTUSx93zEFxFRIKoC3qRfVv6)" vector-effect="non-scaling-stroke" stroke-width="2" stroke="rgb(255,255,255)" stroke-linejoin="miter" stroke-linecap="square" stroke-miterlimit="3"/><path d=" M 32.776 79.768 C 34.359 78.854 36.387 79.397 37.301 80.98 C 38.216 82.564 37.672 84.592 36.089 85.506 C 34.505 86.42 32.478 85.877 31.563 84.293 C 30.649 82.71 31.193 80.682 32.776 79.768 Z " fill="rgb(255,255,255)"/><path d=" M 42.033 73.053 C 44.184 71.811 46.938 72.549 48.18 74.7 C 49.422 76.851 48.684 79.605 46.533 80.847 C 44.382 82.089 41.628 81.351 40.386 79.2 C 39.144 77.049 39.882 74.294 42.033 73.053 Z " fill="rgb(255,255,255)"/><path d=" M 27.849 80.392 L 15.101 83.405 L 34.639 74.044 L 34.338 74.325 L 27.849 80.392 Z  M 41.977 86.754 L 24.101 98.994 L 33.085 89.461 L 41.583 86.874 L 41.977 86.754 Z " fill-rule="evenodd" fill="rgb(255,255,255)"/><path d=" M 34.543 74.134 L 18.395 71.111 L 41.307 67.81 L 34.543 74.134 Z  M 50.71 84.097 L 36.395 102.288 L 41.852 86.793 L 50.71 84.097 Z " fill-rule="evenodd" fill="rgb(255,255,255)"/></g><g><mask id="_mask_sLUkssnYoPq1jhzoGcczJ0vxvIYcgJcE"><path d=" M 65.726 79.981 L 88.377 86.874 L 119.02 96.2 L 95.623 74.325 L 78.327 58.155 C 80.566 62.535 80.611 67.927 77.971 72.5 C 75.33 77.073 70.638 79.73 65.726 79.981 Z " fill-rule="evenodd" fill="white" stroke="none"/></mask><path d=" M 65.726 79.981 L 88.377 86.874 L 119.02 96.2 L 95.623 74.325 L 78.327 58.155 C 80.566 62.535 80.611 67.927 77.971 72.5 C 75.33 77.073 70.638 79.73 65.726 79.981 Z " fill-rule="evenodd" fill="none"/><path d=" M 65.726 79.981 L 88.377 86.874 L 119.02 96.2 L 95.623 74.325 L 78.327 58.155 C 80.566 62.535 80.611 67.927 77.971 72.5 C 75.33 77.073 70.638 79.73 65.726 79.981 Z " fill-rule="evenodd" fill="none" mask="url(#_mask_sLUkssnYoPq1jhzoGcczJ0vxvIYcgJcE)" vector-effect="non-scaling-stroke" stroke-width="2" stroke="rgb(255,255,255)" stroke-linejoin="miter" stroke-linecap="square" stroke-miterlimit="3"/><path d=" M 93.872 85.506 C 92.288 84.592 91.745 82.564 92.659 80.98 C 93.573 79.397 95.601 78.854 97.185 79.768 C 98.768 80.682 99.311 82.71 98.397 84.293 C 97.483 85.877 95.455 86.42 93.872 85.506 Z " fill="rgb(255,255,255)"/><path d=" M 83.428 80.847 C 81.277 79.605 80.539 76.851 81.781 74.7 C 83.022 72.549 85.777 71.811 87.928 73.053 C 90.079 74.294 90.817 77.049 89.575 79.2 C 88.333 81.351 85.579 82.089 83.428 80.847 Z " fill="rgb(255,255,255)"/><path d=" M 96.875 89.461 L 105.859 98.994 L 87.983 86.754 L 88.377 86.874 L 96.875 89.461 Z  M 95.322 74.044 L 114.859 83.405 L 102.111 80.392 L 95.623 74.325 L 95.322 74.044 Z " fill-rule="evenodd" fill="rgb(255,255,255)"/><path d=" M 88.109 86.793 L 93.565 102.288 L 79.251 84.097 L 88.109 86.793 Z  M 88.654 67.81 L 111.565 71.111 L 95.417 74.134 L 88.654 67.81 Z " fill-rule="evenodd" fill="rgb(255,255,255)"/></g></g><path d=" M 53.194 74.275 L 64.98 110 L 76.767 74.275 C 74.019 77.76 69.759 80 64.98 80 C 60.201 80 55.942 77.76 53.194 74.275 Z  M 51.046 70.56 L 26.009 42.5 L 62.831 50.153 C 55.569 51.197 49.98 57.451 49.98 65 C 49.98 66.964 50.359 68.84 51.046 70.56 Z  M 67.13 50.153 L 103.951 42.5 L 78.915 70.56 C 79.602 68.84 79.98 66.964 79.98 65 C 79.98 57.451 74.392 51.197 67.13 50.153 Z " fill-rule="evenodd" fill="rgb(255,255,255)"/></g></g></svg>