<?xml version="1.0" encoding="UTF-8" standalone="no"?><!-- Generator: Gravit.io --><svg xmlns="http://www.w3.org/2000/svg" xmlns:xlink="http://www.w3.org/1999/xlink" style="isolation:isolate" viewBox="0 0 36 27" width="36pt" height="27pt"><defs><clipPath id="_clipPath_AYSZBjbw8NXfIsgHCVQAbxDw07yAu9CH"><rect width="36" height="27"/></clipPath></defs><g clip-path="url(#_clipPath_AYSZBjbw8NXfIsgHCVQAbxDw07yAu9CH)"><g><mask id="_mask_sIi2E6DcaEomIxpwsT7ZjUwltzO2udlN" x="-200%" y="-200%" width="400%" height="400%"><rect x="-200%" y="-200%" width="400%" height="400%" style="fill:white;"/><path d=" M 11.471 4.5 L 22.5 4.5 L 22.5 22.5 L 11.471 22.5 C 7.624 22.5 4.5 19.376 4.5 15.529 L 4.5 11.471 C 4.5 7.624 7.624 4.5 11.471 4.5 Z " fill="black" stroke="none"/></mask><path d=" M 11.471 4.5 L 22.5 4.5 L 22.5 22.5 L 11.471 22.5 C 7.624 22.5 4.5 19.376 4.5 15.529 L 4.5 11.471 C 4.5 7.624 7.624 4.5 11.471 4.5 Z " fill="none"/><path d=" M 11.471 4.5 L 22.5 4.5 L 22.5 22.5 L 11.471 22.5 C 7.624 22.5 4.5 19.376 4.5 15.529 L 4.5 11.471 C 4.5 7.624 7.624 4.5 11.471 4.5 Z " fill="none" mask="url(#_mask_sIi2E6DcaEomIxpwsT7ZjUwltzO2udlN)" vector-effect="non-scaling-stroke" stroke-width="2" stroke="rgb(255,255,255)" stroke-linejoin="miter" stroke-linecap="square" stroke-miterlimit="2"/><mask id="_mask_ZAcW51cb8nGNv7NRE9H2m23YzaJHzKHj" x="-200%" y="-200%" width="400%" height="400%"><rect x="-200%" y="-200%" width="400%" height="400%" style="fill:white;"/><path d=" M 31.75 19.466 L 23.5 19.466 L 23.5 7.534 L 31.75 7.534 C 33.268 7.534 34.5 8.87 34.5 10.517 L 34.5 16.483 C 34.5 18.13 33.268 19.466 31.75 19.466 Z " fill="black" stroke="none"/></mask><path d=" M 31.75 19.466 L 23.5 19.466 L 23.5 7.534 L 31.75 7.534 C 33.268 7.534 34.5 8.87 34.5 10.517 L 34.5 16.483 C 34.5 18.13 33.268 19.466 31.75 19.466 Z " fill="none"/><path d=" M 31.75 19.466 L 23.5 19.466 L 23.5 7.534 L 31.75 7.534 C 33.268 7.534 34.5 8.87 34.5 10.517 L 34.5 16.483 C 34.5 18.13 33.268 19.466 31.75 19.466 Z " fill="none" mask="url(#_mask_ZAcW51cb8nGNv7NRE9H2m23YzaJHzKHj)" vector-effect="non-scaling-stroke" stroke-width="2" stroke="rgb(255,255,255)" stroke-linejoin="miter" stroke-linecap="square" stroke-miterlimit="2"/><path d=" M 22.5 7.5 L 25.817 7.5 C 27.298 7.5 28.5 6.298 28.5 4.817 L 28.5 4.183 C 28.5 2.702 27.298 1.5 25.817 1.5 L 4.5 1.5 L 4.5 7.5 L 5.743 7.5 C 7.002 5.688 9.099 4.5 11.471 4.5 L 22.5 4.5 L 22.5 7.5 L 22.5 7.5 Z " fill-rule="evenodd" fill="none"/><clipPath id="_clipPath_2RundGH96E2wlOUMHH2boGOQ1vksm3xx"><path d=" M 22.5 7.5 L 25.817 7.5 C 27.298 7.5 28.5 6.298 28.5 4.817 L 28.5 4.183 C 28.5 2.702 27.298 1.5 25.817 1.5 L 4.5 1.5 L 4.5 7.5 L 5.743 7.5 C 7.002 5.688 9.099 4.5 11.471 4.5 L 22.5 4.5 L 22.5 7.5 L 22.5 7.5 Z " fill-rule="evenodd" fill="rgb(255,255,255)"/></clipPath><g clip-path="url(#_clipPath_2RundGH96E2wlOUMHH2boGOQ1vksm3xx)"><mask id="_mask_AnaOkH2Q5gQPLTfvDNbxitWPk8t1eyWa"><path d=" M 22.5 7.5 L 25.817 7.5 C 27.298 7.5 28.5 6.298 28.5 4.817 L 28.5 4.183 C 28.5 2.702 27.298 1.5 25.817 1.5 L 4.5 1.5 L 4.5 7.5 L 5.743 7.5 C 7.002 5.688 9.099 4.5 11.471 4.5 L 22.5 4.5 L 22.5 7.5 L 22.5 7.5 Z " fill-rule="evenodd" fill="white" stroke="none"/></mask><path d=" M 22.5 7.5 L 25.817 7.5 C 27.298 7.5 28.5 6.298 28.5 4.817 L 28.5 4.183 C 28.5 2.702 27.298 1.5 25.817 1.5 L 4.5 1.5 L 4.5 7.5 L 5.743 7.5 C 7.002 5.688 9.099 4.5 11.471 4.5 L 22.5 4.5 L 22.5 7.5 L 22.5 7.5 Z " fill-rule="evenodd" fill="none"/><path d=" M 22.5 7.5 L 25.817 7.5 C 27.298 7.5 28.5 6.298 28.5 4.817 L 28.5 4.183 C 28.5 2.702 27.298 1.5 25.817 1.5 L 4.5 1.5 L 4.5 7.5 L 5.743 7.5 C 7.002 5.688 9.099 4.5 11.471 4.5 L 22.5 4.5 L 22.5 7.5 L 22.5 7.5 Z " fill-rule="evenodd" fill="none" mask="url(#_mask_AnaOkH2Q5gQPLTfvDNbxitWPk8t1eyWa)" vector-effect="non-scaling-stroke" stroke-width="2" stroke="rgb(255,255,255)" stroke-opacity="100" stroke-linejoin="miter" stroke-linecap="square" stroke-miterlimit="3"/></g><path d=" M 5.743 19.5 L 4.5 19.5 L 4.5 25.5 L 25.817 25.5 C 27.298 25.5 28.5 24.298 28.5 22.817 L 28.5 22.183 C 28.5 20.702 27.298 19.5 25.817 19.5 L 22.5 19.5 L 22.5 22.5 L 11.471 22.5 C 9.099 22.5 7.002 21.312 5.743 19.5 Z " fill-rule="evenodd" fill="none"/><clipPath id="_clipPath_U5dmhGjreYv0KvTH4RynmEwGBuxulu1j"><path d=" M 5.743 19.5 L 4.5 19.5 L 4.5 25.5 L 25.817 25.5 C 27.298 25.5 28.5 24.298 28.5 22.817 L 28.5 22.183 C 28.5 20.702 27.298 19.5 25.817 19.5 L 22.5 19.5 L 22.5 22.5 L 11.471 22.5 C 9.099 22.5 7.002 21.312 5.743 19.5 Z " fill-rule="evenodd" fill="rgb(255,255,255)"/></clipPath><g clip-path="url(#_clipPath_U5dmhGjreYv0KvTH4RynmEwGBuxulu1j)"><mask id="_mask_W9VOsBFXA06OtbY96w0S54WhOwZnU2CX"><path d=" M 5.743 19.5 L 4.5 19.5 L 4.5 25.5 L 25.817 25.5 C 27.298 25.5 28.5 24.298 28.5 22.817 L 28.5 22.183 C 28.5 20.702 27.298 19.5 25.817 19.5 L 22.5 19.5 L 22.5 22.5 L 11.471 22.5 C 9.099 22.5 7.002 21.312 5.743 19.5 Z " fill-rule="evenodd" fill="white" stroke="none"/></mask><path d=" M 5.743 19.5 L 4.5 19.5 L 4.5 25.5 L 25.817 25.5 C 27.298 25.5 28.5 24.298 28.5 22.817 L 28.5 22.183 C 28.5 20.702 27.298 19.5 25.817 19.5 L 22.5 19.5 L 22.5 22.5 L 11.471 22.5 C 9.099 22.5 7.002 21.312 5.743 19.5 Z " fill-rule="evenodd" fill="none"/><path d=" M 5.743 19.5 L 4.5 19.5 L 4.5 25.5 L 25.817 25.5 C 27.298 25.5 28.5 24.298 28.5 22.817 L 28.5 22.183 C 28.5 20.702 27.298 19.5 25.817 19.5 L 22.5 19.5 L 22.5 22.5 L 11.471 22.5 C 9.099 22.5 7.002 21.312 5.743 19.5 Z " fill-rule="evenodd" fill="none" mask="url(#_mask_W9VOsBFXA06OtbY96w0S54WhOwZnU2CX)" vector-effect="non-scaling-stroke" stroke-width="2" stroke="rgb(255,255,255)" stroke-opacity="100" stroke-linejoin="miter" stroke-linecap="square" stroke-miterlimit="3"/></g><mask id="_mask_8f1C1QhHbCU1POdVlWACtmjXS1ZxtTtx" x="-200%" y="-200%" width="400%" height="400%"><rect x="-200%" y="-200%" width="400%" height="400%" style="fill:white;"/><path d=" M 1.5 7.5 L 4.5 6.5 L 4.5 2.5 L 1.5 1.5 L 1.5 7.5 L 1.5 7.5 Z " fill="black" stroke="none"/></mask><path d=" M 1.5 7.5 L 4.5 6.5 L 4.5 2.5 L 1.5 1.5 L 1.5 7.5 L 1.5 7.5 Z " fill="none"/><path d=" M 1.5 7.5 L 4.5 6.5 L 4.5 2.5 L 1.5 1.5 L 1.5 7.5 L 1.5 7.5 Z " fill="none" mask="url(#_mask_8f1C1QhHbCU1POdVlWACtmjXS1ZxtTtx)" vector-effect="non-scaling-stroke" stroke-width="2" stroke="rgb(255,255,255)" stroke-opacity="100" stroke-linejoin="miter" stroke-linecap="square" stroke-miterlimit="3"/><mask id="_mask_Fc4H8ZB9ry2FdxxclQqFOwSPllNiXZaf" x="-200%" y="-200%" width="400%" height="400%"><rect x="-200%" y="-200%" width="400%" height="400%" style="fill:white;"/><path d=" M 1.5 25.5 L 4.5 24.5 L 4.5 20.5 L 1.5 19.5 L 1.5 25.5 L 1.5 25.5 Z " fill="black" stroke="none"/></mask><path d=" M 1.5 25.5 L 4.5 24.5 L 4.5 20.5 L 1.5 19.5 L 1.5 25.5 L 1.5 25.5 Z " fill="none"/><path d=" M 1.5 25.5 L 4.5 24.5 L 4.5 20.5 L 1.5 19.5 L 1.5 25.5 L 1.5 25.5 Z " fill="none" mask="url(#_mask_Fc4H8ZB9ry2FdxxclQqFOwSPllNiXZaf)" vector-effect="non-scaling-stroke" stroke-width="2" stroke="rgb(255,255,255)" stroke-opacity="100" stroke-linejoin="miter" stroke-linecap="square" stroke-miterlimit="3"/></g></g></svg>