<?xml version="1.0" encoding="UTF-8" standalone="no"?><!-- Generator: Gravit.io --><svg xmlns="http://www.w3.org/2000/svg" xmlns:xlink="http://www.w3.org/1999/xlink" style="isolation:isolate" viewBox="0 0 108 144" width="108pt" height="144pt"><defs><clipPath id="_clipPath_Gdtn4JZwDSiLW062E1eikCjVFgEzyVE9"><rect width="108" height="144"/></clipPath></defs><g clip-path="url(#_clipPath_Gdtn4JZwDSiLW062E1eikCjVFgEzyVE9)"><g><mask id="_mask_HzUkLtnm0L9DhQ86NchuClpVcgktC6Jg" x="-200%" y="-200%" width="400%" height="400%"><rect x="-200%" y="-200%" width="400%" height="400%" style="fill:white;"/><path d=" M 18 98.116 L 18 54 L 90 54 L 90 98.116 C 90 113.504 77.504 126 62.116 126 L 45.884 126 C 30.496 126 18 113.504 18 98.116 Z " fill="black" stroke="none"/></mask><path d=" M 18 98.116 L 18 54 L 90 54 L 90 98.116 C 90 113.504 77.504 126 62.116 126 L 45.884 126 C 30.496 126 18 113.504 18 98.116 Z " fill="none"/><path d=" M 18 98.116 L 18 54 L 90 54 L 90 98.116 C 90 113.504 77.504 126 62.116 126 L 45.884 126 C 30.496 126 18 113.504 18 98.116 Z " fill="none" mask="url(#_mask_HzUkLtnm0L9DhQ86NchuClpVcgktC6Jg)" vector-effect="non-scaling-stroke" stroke-width="8" stroke="rgb(255,255,255)" stroke-linejoin="miter" stroke-linecap="square" stroke-miterlimit="2"/><mask id="_mask_iYa74ste4Itzxv4jlQOF7ACL2H0apDYP" x="-200%" y="-200%" width="400%" height="400%"><rect x="-200%" y="-200%" width="400%" height="400%" style="fill:white;"/><path d=" M 77.864 17 L 77.864 50 L 30.136 50 L 30.136 17 C 30.136 10.928 35.481 6 42.068 6 L 65.932 6 C 72.519 6 77.864 10.928 77.864 17 Z " fill="black" stroke="none"/></mask><path d=" M 77.864 17 L 77.864 50 L 30.136 50 L 30.136 17 C 30.136 10.928 35.481 6 42.068 6 L 65.932 6 C 72.519 6 77.864 10.928 77.864 17 Z " fill="none"/><path d=" M 77.864 17 L 77.864 50 L 30.136 50 L 30.136 17 C 30.136 10.928 35.481 6 42.068 6 L 65.932 6 C 72.519 6 77.864 10.928 77.864 17 Z " fill="none" mask="url(#_mask_iYa74ste4Itzxv4jlQOF7ACL2H0apDYP)" vector-effect="non-scaling-stroke" stroke-width="8" stroke="rgb(255,255,255)" stroke-linejoin="miter" stroke-linecap="square" stroke-miterlimit="2"/><path d=" M 30 54 L 30 40.732 C 30 34.808 25.192 30 19.268 30 L 16.732 30 C 10.808 30 6 34.808 6 40.732 L 6 126 L 30 126 L 30 121.028 C 22.752 115.992 18 107.604 18 98.116 L 18 54 L 30 54 Z " fill-rule="evenodd" fill="none"/><clipPath id="_clipPath_M6pAfzabunnqQofic9rNdGsfrT34sxma"><path d=" M 30 54 L 30 40.732 C 30 34.808 25.192 30 19.268 30 L 16.732 30 C 10.808 30 6 34.808 6 40.732 L 6 126 L 30 126 L 30 121.028 C 22.752 115.992 18 107.604 18 98.116 L 18 54 L 30 54 Z " fill-rule="evenodd" fill="rgb(255,255,255)"/></clipPath><g clip-path="url(#_clipPath_M6pAfzabunnqQofic9rNdGsfrT34sxma)"><mask id="_mask_bwLqXnhZbtju7xLWE7YTFPMq3v1Um7R8"><path d=" M 30 54 L 30 40.732 C 30 34.808 25.192 30 19.268 30 L 16.732 30 C 10.808 30 6 34.808 6 40.732 L 6 126 L 30 126 L 30 121.028 C 22.752 115.992 18 107.604 18 98.116 L 18 54 L 30 54 Z " fill-rule="evenodd" fill="white" stroke="none"/></mask><path d=" M 30 54 L 30 40.732 C 30 34.808 25.192 30 19.268 30 L 16.732 30 C 10.808 30 6 34.808 6 40.732 L 6 126 L 30 126 L 30 121.028 C 22.752 115.992 18 107.604 18 98.116 L 18 54 L 30 54 Z " fill-rule="evenodd" fill="none"/><path d=" M 30 54 L 30 40.732 C 30 34.808 25.192 30 19.268 30 L 16.732 30 C 10.808 30 6 34.808 6 40.732 L 6 126 L 30 126 L 30 121.028 C 22.752 115.992 18 107.604 18 98.116 L 18 54 L 30 54 Z " fill-rule="evenodd" fill="none" mask="url(#_mask_bwLqXnhZbtju7xLWE7YTFPMq3v1Um7R8)" vector-effect="non-scaling-stroke" stroke-width="8" stroke="rgb(255,255,255)" stroke-opacity="100" stroke-linejoin="miter" stroke-linecap="square" stroke-miterlimit="3"/></g><path d=" M 78 121.028 L 78 126 L 102 126 L 102 40.732 C 102 34.808 97.192 30 91.268 30 L 88.732 30 C 82.808 30 78 34.808 78 40.732 L 78 54 L 90 54 L 90 98.116 C 90 107.604 85.248 115.992 78 121.028 Z " fill-rule="evenodd" fill="none"/><clipPath id="_clipPath_5p0cw57Im4NphGon3iNBCNJ7yVMl7862"><path d=" M 78 121.028 L 78 126 L 102 126 L 102 40.732 C 102 34.808 97.192 30 91.268 30 L 88.732 30 C 82.808 30 78 34.808 78 40.732 L 78 54 L 90 54 L 90 98.116 C 90 107.604 85.248 115.992 78 121.028 Z " fill-rule="evenodd" fill="rgb(255,255,255)"/></clipPath><g clip-path="url(#_clipPath_5p0cw57Im4NphGon3iNBCNJ7yVMl7862)"><mask id="_mask_JVh6QjT5aaK6C7YHuqKvjnVnx5Y98n9c"><path d=" M 78 121.028 L 78 126 L 102 126 L 102 40.732 C 102 34.808 97.192 30 91.268 30 L 88.732 30 C 82.808 30 78 34.808 78 40.732 L 78 54 L 90 54 L 90 98.116 C 90 107.604 85.248 115.992 78 121.028 Z " fill-rule="evenodd" fill="white" stroke="none"/></mask><path d=" M 78 121.028 L 78 126 L 102 126 L 102 40.732 C 102 34.808 97.192 30 91.268 30 L 88.732 30 C 82.808 30 78 34.808 78 40.732 L 78 54 L 90 54 L 90 98.116 C 90 107.604 85.248 115.992 78 121.028 Z " fill-rule="evenodd" fill="none"/><path d=" M 78 121.028 L 78 126 L 102 126 L 102 40.732 C 102 34.808 97.192 30 91.268 30 L 88.732 30 C 82.808 30 78 34.808 78 40.732 L 78 54 L 90 54 L 90 98.116 C 90 107.604 85.248 115.992 78 121.028 Z " fill-rule="evenodd" fill="none" mask="url(#_mask_JVh6QjT5aaK6C7YHuqKvjnVnx5Y98n9c)" vector-effect="non-scaling-stroke" stroke-width="8" stroke="rgb(255,255,255)" stroke-opacity="100" stroke-linejoin="miter" stroke-linecap="square" stroke-miterlimit="3"/></g><mask id="_mask_m22pCubENSOXF8V59XyH3RRwP8DobRV1" x="-200%" y="-200%" width="400%" height="400%"><rect x="-200%" y="-200%" width="400%" height="400%" style="fill:white;"/><path d=" M 30 138 L 26 126 L 10 126 L 6 138 L 30 138 Z " fill="black" stroke="none"/></mask><path d=" M 30 138 L 26 126 L 10 126 L 6 138 L 30 138 Z " fill="none"/><path d=" M 30 138 L 26 126 L 10 126 L 6 138 L 30 138 Z " fill="none" mask="url(#_mask_m22pCubENSOXF8V59XyH3RRwP8DobRV1)" vector-effect="non-scaling-stroke" stroke-width="8" stroke="rgb(255,255,255)" stroke-opacity="100" stroke-linejoin="miter" stroke-linecap="square" stroke-miterlimit="3"/><mask id="_mask_Vwdm7T80LwMRr91RuZHH7HK0AIwF5kkg" x="-200%" y="-200%" width="400%" height="400%"><rect x="-200%" y="-200%" width="400%" height="400%" style="fill:white;"/><path d=" M 102 138 L 98 126 L 82 126 L 78 138 L 102 138 Z " fill="black" stroke="none"/></mask><path d=" M 102 138 L 98 126 L 82 126 L 78 138 L 102 138 Z " fill="none"/><path d=" M 102 138 L 98 126 L 82 126 L 78 138 L 102 138 Z " fill="none" mask="url(#_mask_Vwdm7T80LwMRr91RuZHH7HK0AIwF5kkg)" vector-effect="non-scaling-stroke" stroke-width="8" stroke="rgb(255,255,255)" stroke-opacity="100" stroke-linejoin="miter" stroke-linecap="square" stroke-miterlimit="3"/></g></g></svg>